<svg width="80" height="80" viewBox="0 0 80 80" fill="none" xmlns="http://www.w3.org/2000/svg">
<path d="M19.6836 60.4425C20.018 60.6114 20.3622 60.7603 20.7143 60.8883C21.5401 61.2226 22.3702 61.546 23.2189 61.8185C24.0281 62.0696 24.8504 62.2765 25.6822 62.4384C26.1547 62.5351 26.6273 62.6317 27.1008 62.7235C27.5326 62.8072 27.9713 62.8413 28.4066 62.899C28.8765 62.9614 29.349 62.9466 29.8192 62.9958C30.2238 63.0381 30.6349 63.0191 31.0432 63.024C31.4622 63.029 31.8813 63.0288 32.3004 63.0338C32.4074 63.0351 32.5141 63.0498 32.6212 63.0549C32.7386 63.0678 32.8569 63.0703 32.9747 63.0624C33.3813 63.0257 33.7897 63.0137 34.1978 63.0266C34.9714 63.0177 35.7453 63.0256 36.5187 63.0103C37.0761 62.9993 37.6327 62.9614 38.1881 62.9032C38.5719 62.863 38.9592 62.8565 39.3435 62.8197C40.0825 62.7491 40.8246 62.7753 41.5639 62.7374C41.9821 62.716 42.4012 62.7161 42.8181 62.6833C43.2239 62.6514 43.6286 62.5988 44.032 62.5427C44.5944 62.4645 45.1531 62.3616 45.7184 62.3005C46.1339 62.2555 46.5469 62.1841 46.9659 62.1758C47.2237 62.1707 47.4816 62.1747 47.7395 62.1728C48.2224 62.1834 48.7032 62.2396 49.1755 62.3408C50.5012 62.6026 51.8123 62.9335 53.1034 63.3322C54.1632 63.6434 55.2226 63.9573 56.3017 64.1979C56.8668 64.3239 57.436 64.4249 58.0085 64.5121C58.5593 64.5961 59.1063 64.704 59.6557 64.7976C60.3533 64.9165 61.047 65.0549 61.7367 65.2128C62.7879 65.4307 63.8157 65.7493 64.8057 66.1644C65.0313 66.264 65.2496 66.3806 65.4698 66.4922C65.6297 66.5733 65.6284 66.5751 65.7753 66.4497C65.8077 66.4221 65.8423 66.3971 65.8759 66.3709C66.1484 66.2274 66.2274 65.9484 66.3337 65.6956C66.5821 65.1055 66.6441 64.4719 66.7418 63.8471C66.8075 63.4336 66.8281 63.0143 66.8032 62.5964C66.7821 62.2551 66.7025 61.9351 66.3661 61.7531C64.975 61.644 63.8336 60.8529 62.5811 60.3645C60.8352 59.6042 59.1661 58.6943 57.4879 57.7982C55.3986 56.6825 53.1434 56.0664 50.7987 55.7699C49.6157 55.6203 48.4279 55.5415 47.236 55.4991C46.6999 55.48 46.1621 55.4013 45.6279 55.449C44.704 55.5315 43.7834 55.452 42.8621 55.4373C41.4057 55.414 39.9807 55.1453 38.5609 54.8379C36.9019 54.4786 35.2749 53.972 33.589 53.7384C32.2052 53.5467 30.8291 53.3047 29.4449 53.1162C29.2313 53.0911 29.0204 53.0463 28.815 52.9824C28.3817 52.8391 28.3006 52.6887 28.4062 52.2313C28.2871 52.1903 28.1881 52.1054 28.1294 51.9939C27.9496 51.6283 27.7361 51.2803 27.4916 50.9545C27.0401 50.3675 26.5 49.8542 25.8907 49.433C25.6952 49.3007 25.4815 49.1976 25.2563 49.1269C25.0837 49.0655 24.8965 49.0581 24.7195 49.1056C24.129 50.0609 23.5094 50.9975 22.8876 51.9327C22.1517 53.0395 21.2931 54.0568 20.5477 55.1565C20.4597 55.265 20.3957 55.391 20.36 55.526C19.8693 56.828 19.755 58.1959 19.6634 59.5652C19.6441 59.8542 19.4917 60.1555 19.6836 60.4425Z" fill="#145E67"/>
<path d="M7.36069 50.2503C7.41094 50.3458 7.43294 50.4537 7.42412 50.5612C7.42254 50.8191 7.43404 51.0774 7.42472 51.335C7.4251 51.7857 7.4531 52.236 7.50856 52.6833C7.55968 53.1414 7.65068 53.5941 7.78051 54.0364C8.15108 55.425 8.53648 56.8088 9.00237 58.1695C9.16977 58.6336 9.29994 59.1103 9.39164 59.5951C9.43343 59.8375 9.4655 60.0818 9.49501 60.326C9.5374 60.6767 9.59011 61.0273 9.60848 61.3794C9.63971 61.978 9.70894 61.8764 9.17585 62.0547C8.76665 62.1824 8.35011 62.2852 7.9285 62.3626C7.47763 62.4549 7.02625 62.5502 6.57078 62.6129C6.18779 62.6656 5.81123 62.7432 5.43451 62.8244C5.2344 62.8663 5.04313 62.9428 4.86933 63.0504C4.8307 63.0699 4.79697 63.0978 4.77068 63.1321C4.74439 63.1664 4.72621 63.2063 4.71752 63.2486C4.70511 63.2958 4.7072 63.3457 4.72351 63.3917C4.73983 63.4377 4.76962 63.4778 4.809 63.5066C4.93749 63.604 5.08018 63.6811 5.23207 63.7351C5.60764 63.8618 5.99481 63.9511 6.38794 64.0015C6.66425 64.026 6.94221 64.0251 7.21834 63.9986C7.6035 63.9707 7.99188 63.9753 8.37853 63.9829C8.74459 63.99 9.10419 63.9001 9.47035 63.9247C9.50241 63.9269 9.5348 63.9241 9.56705 63.924C9.88017 63.9232 9.93353 63.9542 9.93096 64.2621C9.95289 64.7043 9.84745 65.1435 9.62716 65.5275C9.57428 65.6216 9.50041 65.7022 9.41131 65.7631C9.17425 65.9127 8.90707 66.008 8.62888 66.0423C8.42603 66.0688 8.2203 66.0639 8.01895 66.0277C7.67998 65.9689 7.33224 65.9852 7.00024 66.0754C6.70939 66.1502 6.4249 66.2479 6.14941 66.3674C5.90623 66.4806 5.65316 66.5712 5.39338 66.6381C5.0901 66.7049 4.78171 66.7461 4.47151 66.7612C4.20303 66.7685 3.93416 66.7611 3.66563 66.7671C3.36621 66.7512 3.06818 66.7152 2.77355 66.6595C2.43355 66.6063 2.0866 66.6168 1.75044 66.6905C1.61463 66.7237 1.48584 66.7808 1.37014 66.8593C1.30673 66.9043 1.25481 66.9636 1.21857 67.0325C1.18233 67.1013 1.16279 67.1777 1.16153 67.2554C1.16027 67.3332 1.17733 67.4102 1.21132 67.4801C1.24531 67.5501 1.29529 67.6111 1.3572 67.6582C1.5418 67.7896 1.75476 67.8757 1.97883 67.9094C2.34581 67.9828 2.71819 68.024 3.09134 68.0645C3.49664 68.1085 3.90664 68.082 4.30843 68.1628C4.40452 68.1742 4.50147 68.1764 4.59799 68.1694C5.61899 68.1744 6.64091 68.1548 7.66065 68.1932C8.23943 68.215 8.81993 68.2138 9.39679 68.2585C9.69657 68.2817 9.99524 68.295 10.2952 68.3058C10.5978 68.3168 10.8919 68.2372 11.1929 68.2383C11.2252 68.2373 11.257 68.2304 11.2868 68.2178C11.6484 68.0753 11.9925 67.9152 12.2127 67.5638C12.4787 67.1719 12.6628 66.7303 12.7538 66.2656C12.8243 65.9084 12.843 65.5429 12.8091 65.1805C12.7755 64.7413 12.7674 64.3006 12.7848 63.8605C12.9725 63.5451 12.8772 63.1878 12.9215 62.8523C13.0382 62.0443 13.0899 61.2283 13.0761 60.412C13.065 59.1222 12.8969 57.8385 12.5755 56.5892C12.5611 56.5266 12.5511 56.463 12.5455 56.3989C12.2619 55.2405 11.9326 54.0908 11.7587 52.909C11.5658 51.5976 11.6114 50.2787 11.6918 48.9594C11.7582 47.8438 11.9115 46.735 12.1502 45.6432C12.3175 44.9646 12.5353 44.2995 12.8017 43.6534C13.3424 42.3139 13.6093 40.8797 13.5866 39.4353C13.5834 39.3279 13.5865 39.2204 13.591 39.1129C13.5869 38.9481 13.6309 38.7857 13.7176 38.6455C13.8043 38.5052 13.93 38.3933 14.0793 38.3233C15.0184 37.8066 15.441 36.9232 15.5058 35.9008C15.6183 34.233 15.3981 32.5594 14.8578 30.9775C14.7272 30.5895 14.5213 30.231 14.2518 29.9227C14.2285 29.8984 14.2035 29.8757 14.1769 29.855C14.1648 29.8447 14.1515 29.8348 14.1393 29.8244C14.0369 29.7528 13.9598 29.6508 13.9187 29.5328C13.4741 29.0198 12.9175 28.616 12.2919 28.3525C12.0009 28.2337 11.679 28.2133 11.3753 28.2945C10.5937 28.4703 9.82812 28.7082 9.16279 29.1544C8.50622 29.5948 8.00606 30.2091 7.56363 30.8632C7.24472 31.3359 6.9685 31.836 6.73824 32.3577C6.42445 33.0662 6.08147 33.7605 5.71644 34.4422C5.12254 35.5512 5.22494 36.241 6.16985 37.2566C6.28575 37.3811 6.38036 37.5684 6.60496 37.537C6.6829 37.1086 6.69241 36.6718 6.78013 36.2434C7.04064 34.971 7.53931 33.8404 8.62562 33.0478C8.8484 32.8698 9.1003 32.7316 9.37018 32.6394C8.06129 33.1563 7.31603 34.2703 6.92443 35.6638C6.74211 36.2459 6.65083 36.8526 6.65382 37.4626C6.63415 37.6438 6.60412 37.8237 6.5639 38.0015C6.53738 38.5767 6.69848 39.1299 6.76033 39.6946C6.83402 40.3675 6.84869 41.0441 6.86707 41.7177C6.89926 42.8978 6.99355 44.073 7.05784 45.2506C7.09296 45.894 7.07632 46.5388 7.06805 47.1827C7.05613 48.1091 7.18528 49.0235 7.27232 49.9417C7.28858 50.0479 7.31828 50.1516 7.36069 50.2503Z" fill="#F9B673"/>
<path d="M7.3607 50.2502C7.36721 50.2416 7.37966 50.2329 7.37937 50.2246C7.38161 50.0227 7.37274 49.8208 7.3528 49.6198C7.28354 49.2205 7.24403 48.8166 7.23462 48.4114C7.23789 48.3793 7.23675 48.3469 7.23125 48.3151C7.13164 47.9678 7.17675 47.6122 7.17262 47.2601C7.16543 46.6486 7.17029 46.0369 7.16961 45.4253C7.17467 45.2969 7.16159 45.1684 7.13075 45.0436C7.11109 44.9385 7.10335 44.8315 7.10767 44.7247C7.09328 44.4157 7.13274 44.1054 7.05167 43.7974C7.03215 43.6593 7.02876 43.5193 7.04157 43.3804C7.05518 43.1878 7.03807 42.9942 6.99087 42.807C6.97553 42.7334 6.97164 42.6579 6.97933 42.5832C6.97766 42.272 6.97823 41.9609 6.97623 41.6497C6.98927 41.4784 6.97302 41.3062 6.92817 41.1404C6.91211 41.067 6.90774 40.9915 6.91522 40.9168C6.91351 40.7344 6.91162 40.5519 6.91419 40.3696C6.90305 40.0073 6.86577 39.6463 6.80264 39.2895C6.74342 38.8354 6.62579 38.3867 6.65491 37.9229C6.57186 37.8031 6.72867 37.6436 6.5904 37.533C6.36758 37.3498 6.16381 37.1446 5.98218 36.9205C5.81133 36.7145 5.66855 36.4868 5.5576 36.2433C5.401 35.9103 5.37793 35.5299 5.49313 35.1803C5.54974 34.9959 5.62265 34.8169 5.71099 34.6454C5.97231 34.1283 6.2329 33.6109 6.48784 33.0907C6.6764 32.706 6.85167 32.3147 7.04029 31.93C7.22322 31.5666 7.42826 31.2148 7.65426 30.8766C8.03904 30.3216 8.4884 29.8144 8.99291 29.3655C9.10597 29.267 9.23136 29.1836 9.36593 29.1174C9.94468 28.8135 10.5572 28.5788 11.1908 28.4181C11.3678 28.3713 11.5547 28.3935 11.725 28.3165C11.7663 28.3032 11.8108 28.3034 11.852 28.3172C12.084 28.3584 12.3092 28.4314 12.5212 28.5343C12.9977 28.8015 13.4364 29.1312 13.8255 29.5146C13.846 29.5394 13.8645 29.5656 13.8809 29.5931C13.9361 29.6883 14.0164 29.7648 14.0763 29.8565L14.0751 29.8557C14.0954 29.879 14.1195 29.8986 14.1404 29.9213C14.5988 30.418 14.8095 31.0341 14.9768 31.6692C15.0639 31.9997 15.1426 32.3324 15.2128 32.6672C15.2544 32.8651 15.2519 33.0737 15.3054 33.2674C15.3892 33.5709 15.3231 33.8881 15.4151 34.1892C15.4315 34.2736 15.4358 34.3599 15.428 34.4456C15.4294 34.8323 15.4227 35.2192 15.4314 35.6058C15.4393 36.0999 15.3345 36.5893 15.1247 37.0367C14.8859 37.6067 14.4465 38.0694 13.8896 38.3373C13.841 38.3602 13.7952 38.3895 13.7454 38.4091C13.6085 38.4631 13.5758 38.5638 13.5493 38.7064C13.4639 39.1655 13.5098 39.6263 13.4942 40.086C13.506 40.2468 13.4892 40.4084 13.4444 40.5633C13.4312 40.6154 13.4264 40.6692 13.4303 40.7228C13.4083 41.0745 13.3577 41.4238 13.2791 41.7673C13.1279 42.4356 12.923 43.0907 12.6665 43.7261C12.5216 44.1063 12.4015 44.4959 12.2608 44.8778C12.1315 45.2855 12.028 45.7009 11.9509 46.1216C11.8681 46.4638 11.8069 46.8108 11.7678 47.1607C11.7408 47.426 11.6557 47.6863 11.6864 47.9573C11.5754 48.3317 11.6707 48.7266 11.5712 49.1036C11.5542 49.2097 11.5502 49.3175 11.5593 49.4246C11.5575 49.6609 11.5584 49.8973 11.5567 50.1336C11.5616 50.2729 11.548 50.4122 11.5162 50.5478C11.4823 50.6616 11.4781 50.7822 11.5039 50.8981C11.5554 51.1722 11.5731 51.4517 11.5567 51.7301C11.5411 51.9657 11.5621 52.2023 11.6188 52.4314C11.625 53.0359 11.7927 53.6133 11.9219 54.1962C12.0745 54.8847 12.2461 55.569 12.4109 56.2548C12.4243 56.2956 12.4411 56.3352 12.4611 56.3732C12.5823 56.61 12.7463 56.8223 12.9449 56.9993C13.3055 57.4309 13.69 57.8416 14.0508 58.2729C14.1119 58.3461 14.1669 58.4268 14.272 58.4425C14.4522 58.5774 14.6082 58.742 14.7334 58.9291C15.1802 59.4575 15.4493 60.1131 15.5025 60.8029C15.5144 60.931 15.5346 61.0582 15.563 61.1837C15.5644 61.233 15.5778 61.2813 15.602 61.3243C15.6262 61.3673 15.6605 61.4037 15.702 61.4305C15.7435 61.4573 15.7908 61.4736 15.84 61.478C15.8891 61.4824 15.9386 61.4747 15.9842 61.4557C16.1934 61.4074 16.3969 61.3374 16.5915 61.2467C17.1826 60.981 17.6882 60.5561 18.0515 60.0195C18.0995 59.9488 18.1532 59.882 18.2042 59.8133C18.3722 59.7221 18.4171 59.5473 18.4733 59.3895C18.8871 58.1912 19.4587 57.0534 20.173 56.0061C20.2888 55.8391 20.3452 55.6373 20.4573 55.4664C20.4669 55.4251 20.4821 55.3852 20.5023 55.348C21.0597 54.5885 21.6221 53.8328 22.1772 53.0716C22.682 52.3794 23.1723 51.6773 23.6291 50.9517C23.937 50.4624 24.2671 49.9872 24.5873 49.5057C24.6179 49.4492 24.6542 49.3959 24.6957 49.3468C24.7754 49.269 24.7255 49.1868 24.7196 49.1054C24.4799 48.9061 24.2071 48.7503 23.9137 48.645C23.7899 48.6098 23.6687 48.5652 23.5446 48.5317C22.8299 48.3388 22.1283 48.1053 21.4285 47.865C21.084 47.7467 20.7321 47.6499 20.383 47.545C20.2805 47.5142 20.1753 47.4919 20.073 47.4602C19.7043 47.3462 19.3379 47.2245 18.9677 47.1161C18.6583 47.0255 18.3597 46.9073 18.0592 46.7928C17.7421 46.6605 17.4394 46.4959 17.1561 46.3016C17.0297 46.219 16.9184 46.1154 16.827 45.9954C16.5863 45.7058 16.3955 45.3782 16.2623 45.026C15.9871 44.2475 15.7907 43.4434 15.6761 42.6257C15.5975 42.0955 15.5547 41.5606 15.548 41.0247C15.5483 40.9288 15.5264 40.8331 15.521 40.737C15.5058 40.6202 15.5042 40.502 15.516 40.3847C15.5437 40.2152 15.5552 40.0433 15.5502 39.8716C15.5571 39.4317 15.6089 38.9937 15.705 38.5644C15.779 38.1857 15.8244 37.8029 15.8913 37.4238C16.0852 36.3247 16.0148 35.2185 15.9958 34.1147C15.9863 33.5682 15.9442 33.0228 15.8696 32.4813C15.8312 32.0215 15.7301 31.569 15.5691 31.1366C15.4927 30.9599 15.4417 30.7722 15.3785 30.5897C15.2831 30.2928 15.1356 30.0153 14.943 29.77C14.6275 29.3617 14.2526 29.0031 13.8308 28.7061C13.6705 28.5991 13.5161 28.4833 13.359 28.3716C13.1281 28.0847 12.8222 27.8674 12.4753 27.7437C12.1284 27.6201 11.754 27.5949 11.3937 27.671C10.3256 27.8675 9.29978 28.2481 8.36205 28.796C8.11281 28.9445 7.9455 29.1986 7.67311 29.314C7.36245 29.8098 7.00617 30.2767 6.71629 30.7863C5.84113 32.3249 4.98695 33.8762 3.95279 35.3178C3.90658 35.4027 3.84516 35.4783 3.77159 35.5409C3.74845 35.5584 3.72602 35.577 3.70399 35.596C3.72216 35.7101 3.69667 35.8269 3.63259 35.923C3.40037 36.2719 3.20828 36.6459 3.05998 37.0379C2.93828 37.3813 2.84558 37.7344 2.78287 38.0933C2.72859 38.4649 2.70598 38.8405 2.71528 39.216C2.72396 39.5269 2.75311 39.837 2.80256 40.1441C2.88443 40.8036 3.01647 41.4558 3.19752 42.0952C3.45608 43.0366 3.76649 43.9629 4.12735 44.87C4.39123 45.5507 4.69255 46.2162 5.02993 46.8636C5.37117 47.5091 5.75905 48.1289 6.19051 48.7179C6.5456 49.2025 6.90716 49.6823 7.26726 50.1632C7.2957 50.1949 7.32697 50.2241 7.3607 50.2502Z" fill="#FB625A"/>
<path d="M12.8967 26.9012C13.5503 26.2929 14.0631 25.5492 14.3994 24.7221C14.6986 23.9995 14.9355 23.2527 15.1075 22.4897C15.2646 21.8114 15.3761 21.1233 15.4411 20.4301C15.5071 19.6612 15.5224 18.8887 15.4869 18.1178C15.1185 18.402 15.0874 18.404 14.6899 18.0788C13.8644 17.3949 13.1018 16.6384 12.4113 15.8185C12.0499 15.3952 11.6328 15.0202 11.3113 14.561C11.1864 14.3997 11.0834 14.2226 11.0051 14.0343C10.8949 13.7308 10.9413 13.6199 11.2393 13.4765C11.3158 13.4397 11.4029 13.4192 11.4436 13.3322C10.5985 13.0198 9.7111 12.8365 8.81135 12.7887C8.08189 12.7445 7.35078 12.842 6.6584 13.0758C6.27536 13.2164 5.92068 13.4247 5.61125 13.6907C5.31802 13.9448 5.09482 14.2698 4.96297 14.6347C4.92412 14.7621 4.99364 14.7975 5.09705 14.7712C5.6933 14.6199 6.05665 14.9752 6.37692 15.3799C6.72005 15.8241 6.96845 16.3339 7.10677 16.8778C7.28798 17.4744 7.42794 18.0828 7.52565 18.6987C7.56841 19.1286 7.70194 19.5446 7.91744 19.9192C8.13294 20.2937 8.42549 20.6182 8.77575 20.8713C8.95897 20.9915 9.10407 21.1616 9.19399 21.3615C9.28392 21.5614 9.31495 21.7828 9.28343 21.9997C9.19887 23.1462 9.70899 24.0345 10.5291 24.7746C10.8493 25.0619 11.1906 25.3248 11.5502 25.5609C12.0147 25.837 12.3929 26.2374 12.6419 26.717C12.688 26.8138 12.7315 26.9521 12.8967 26.9012Z" fill="#392520"/>
<path d="M12.8966 26.9012C12.8702 26.8988 12.8447 26.8897 12.8227 26.8749C12.8007 26.86 12.7828 26.8399 12.7706 26.8162C12.7034 26.6818 12.629 26.551 12.5596 26.4177C12.4209 26.1614 12.2242 25.9411 11.9852 25.7744C11.673 25.5461 11.3595 25.3198 11.0507 25.087C10.7718 24.8854 10.5121 24.6585 10.2749 24.4092C9.82928 23.9525 9.52445 23.3773 9.39682 22.7522C9.36511 22.518 9.35088 22.2817 9.35423 22.0454C9.34787 21.8521 9.35091 21.6584 9.34158 21.4653C9.34074 21.374 9.31653 21.2845 9.27128 21.2052C9.22602 21.1259 9.16122 21.0595 9.08305 21.0123C8.90668 20.8898 8.73955 20.7544 8.58299 20.6074C8.04981 20.1287 7.70815 19.473 7.62125 18.7618C7.50506 17.9648 7.31055 17.1812 7.04055 16.4223C6.86813 15.8994 6.57401 15.4248 6.18239 15.0377C6.07519 14.9317 5.95354 14.8414 5.82106 14.7695C5.57679 14.6438 5.32787 14.554 5.05878 14.7198C4.98457 14.7655 4.9829 14.6777 4.96297 14.6346C4.80022 14.9939 4.62844 15.3488 4.49048 15.7194C4.37065 16.0516 4.27117 16.3908 4.19257 16.7351C4.09568 17.2074 3.96179 17.6714 3.79215 18.1227C3.58932 18.5984 3.2684 19.0144 2.8598 19.3314C2.66102 19.4951 2.47196 19.6703 2.29362 19.8561C2.02129 20.1351 1.96187 20.4076 2.36594 20.715C2.50238 20.8188 2.64631 20.9128 2.78254 21.0168C2.87067 21.0776 2.9509 21.1491 3.02139 21.2296C3.0756 21.2893 3.1144 21.3613 3.13442 21.4394C3.15445 21.5174 3.15508 21.5992 3.13625 21.6776C3.07481 21.9154 3.03437 22.1586 2.97144 22.396C2.92382 22.6272 2.93336 22.8667 2.99926 23.0934C3.09162 23.4344 3.15266 23.7831 3.18164 24.1352C3.19259 24.2527 3.21848 24.3683 3.2587 24.4793C3.3714 24.8485 3.6673 25.0187 4.00276 25.1292C4.17583 25.1878 4.35758 25.2166 4.54028 25.2144C4.79783 25.2094 5.05566 25.2207 5.31325 25.2167C5.63445 25.2167 5.95415 25.2604 6.26357 25.3466C6.94424 25.4078 7.6064 25.2658 8.27211 25.1632C8.36739 25.1486 8.46053 25.1207 8.55602 25.1083C8.65831 25.0951 8.78221 25.0295 8.85638 25.1339C8.93833 25.2492 8.84427 25.3614 8.78332 25.4568C8.5267 25.88 8.1741 26.237 7.754 26.4988C7.56108 26.6142 7.39986 26.7447 7.41337 26.9986C7.4586 27.3594 7.56799 27.7076 7.60519 28.0711C7.65422 28.3771 7.65636 28.6888 7.61153 28.9954C7.59456 29.0522 7.5915 29.1123 7.6026 29.1705C7.6137 29.2287 7.63863 29.2834 7.6753 29.33C7.68242 29.3604 7.69521 29.3892 7.71299 29.4149C7.74035 29.441 7.7698 29.4148 7.79297 29.3943C7.94488 29.2604 8.08183 29.1127 8.24421 28.987C8.5848 28.7284 8.96371 28.5246 9.36722 28.3831C9.83866 28.2114 10.3139 28.0498 10.7889 27.8883C11.1021 27.7814 11.4305 27.7258 11.7615 27.7238C12.1364 27.7221 12.504 27.8274 12.8212 28.0274C12.9912 28.156 13.171 28.2712 13.359 28.3717C13.2543 27.9575 13.3312 27.9334 13.1382 27.5508C13.0953 27.4657 12.982 26.9258 12.8966 26.9012ZM66.3168 61.7981C66.4398 61.876 66.5407 61.9843 66.6096 62.1126C66.6784 62.2408 66.713 62.3847 66.7099 62.5303C66.731 62.8838 66.7203 63.2385 66.6778 63.5901C66.6217 64.037 66.5513 64.481 66.4666 64.9223C66.3858 65.3998 66.2056 65.8551 65.9375 66.2585C65.915 66.2949 65.8944 66.3324 65.8759 66.371C66.2844 66.652 66.7554 66.829 67.2479 66.8866C67.7337 66.9669 68.2203 67.0412 68.711 67.0899C69.2543 67.1437 69.7961 67.2132 70.3377 67.2827C70.7623 67.3371 71.1846 67.41 71.6097 67.4599C72.0883 67.5162 72.5691 67.5537 73.0485 67.6039C73.3465 67.6352 73.6436 67.6749 73.9412 67.7108C73.9731 67.7146 74.0052 67.7183 74.0373 67.7206C74.3902 67.7458 74.7474 67.7447 75.0947 67.8031C75.4459 67.8622 75.7997 67.8538 76.1513 67.8964C76.6534 67.9638 77.1642 67.9251 77.6504 67.7827C77.969 67.6822 78.2654 67.5217 78.5237 67.3099C78.5817 67.2618 78.6353 67.2087 78.6839 67.1512C78.9126 66.8888 78.8932 66.6799 78.5875 66.4468C78.4279 66.3371 78.2535 66.2506 78.0696 66.19C77.1868 65.8554 76.3 65.5313 75.4167 65.198C75.1558 65.0995 74.9018 64.9831 74.6447 64.8749C74.5942 64.855 74.5534 64.8163 74.5308 64.767C74.1685 64.5198 73.7543 64.3685 73.3822 64.1365C72.6431 63.6993 72.0011 63.1157 71.4957 62.4215C71.442 62.3448 71.3561 62.2825 71.3766 62.1703C71.2001 62.0977 71.0488 61.9749 70.9416 61.817C70.5826 61.3639 70.1868 60.9411 69.7582 60.5531C69.553 60.362 69.2952 60.2368 69.0182 60.1937C68.7411 60.1505 68.4575 60.1913 68.2039 60.3108C68.0165 60.3903 67.8394 60.4922 67.6764 60.6143C67.6534 60.6365 67.6261 60.6539 67.5963 60.6654C67.5664 60.6769 67.5345 60.6822 67.5025 60.6812C67.017 60.9577 66.6727 61.3841 66.3168 61.7981Z" fill="#F9B673"/>
<path d="M28.4062 52.2314C28.3744 52.2366 28.342 52.2394 28.3109 52.2473C28.2691 52.258 28.2169 52.2748 28.2312 52.3273C28.2592 52.4528 28.2724 52.5811 28.2707 52.7096C28.2708 52.7422 28.2797 52.7742 28.2964 52.8021C28.3131 52.8301 28.337 52.8531 28.3656 52.8687C28.4628 52.9348 28.5662 52.9912 28.6745 53.037C28.9383 53.1246 29.2107 53.1839 29.487 53.2141C29.7095 53.2372 29.931 53.2741 30.1512 53.3145C30.3403 53.3491 30.532 53.3576 30.7215 53.398C31.0863 53.4758 31.4562 53.5309 31.8253 53.5872C32.0468 53.621 32.2714 53.6344 32.4934 53.6659C32.715 53.6973 32.9348 53.7412 33.1558 53.7772C33.3243 53.8047 33.4947 53.8202 33.6636 53.8451C34.4871 53.9728 35.3037 54.1417 36.1103 54.3513C36.867 54.5421 37.6285 54.7141 38.3895 54.8869C38.9728 55.0193 39.5577 55.1446 40.1441 55.263C40.3528 55.305 40.5681 55.3133 40.7798 55.3419C41.0333 55.3762 41.286 55.4166 41.5393 55.4525C41.603 55.4616 41.6671 55.4669 41.7314 55.4686C41.8923 55.4603 42.0536 55.4773 42.2093 55.519C42.2934 55.5372 42.3798 55.542 42.4654 55.5332C42.8094 55.5346 43.1535 55.5322 43.4975 55.5354C43.7221 55.5352 43.9465 55.5505 44.1689 55.5812C44.4451 55.6276 44.7276 55.6206 45.0012 55.5606C45.0957 55.5417 45.192 55.5334 45.2884 55.536C45.6432 55.5332 45.998 55.5329 46.3528 55.5352C46.5458 55.5195 46.74 55.5365 46.9273 55.5855C47.001 55.6011 47.0766 55.6051 47.1515 55.5973C47.388 55.5988 47.6245 55.5983 47.8611 55.5993C47.9898 55.5936 48.1187 55.6074 48.2433 55.6402C48.3378 55.6598 48.4343 55.6672 48.5307 55.6623C48.7557 55.6458 48.982 55.6649 49.2011 55.7188C49.2428 55.7303 49.2864 55.7328 49.3291 55.726C49.6854 55.689 50.0318 55.7908 50.3855 55.8014C50.5556 55.8152 50.7249 55.8377 50.8927 55.8689C51.2518 55.9178 51.6081 55.9874 51.9654 56.0496C52.4515 56.1229 52.9327 56.2251 53.4066 56.3558C53.6216 56.4204 53.8417 56.4684 54.0578 56.5295C54.8118 56.7389 55.55 57.0017 56.2666 57.3159C56.7804 57.5334 57.2819 57.7788 57.7688 58.0511C58.9666 58.7483 60.211 59.3593 61.4581 59.9622C61.819 60.151 62.1947 60.3099 62.5815 60.4375C62.614 60.4082 62.639 60.3716 62.6544 60.3307C62.6698 60.2897 62.6752 60.2457 62.6702 60.2023C62.6356 59.9166 62.5701 59.6542 62.2152 59.6174C61.9011 59.5453 61.5933 59.4478 61.295 59.326C60.9349 59.1859 60.5757 59.0403 60.2286 58.8714C59.6011 58.566 58.9696 58.2689 58.3514 57.9436C57.6673 57.5838 56.9662 57.2562 56.2731 56.9137C56.0612 56.809 55.8485 56.7058 55.6404 56.5941C54.5997 56.0345 53.521 55.5489 52.4122 55.1407C51.7034 54.8905 50.9701 54.7166 50.2245 54.6217C49.5448 54.5163 48.8558 54.4834 48.1691 54.5235C47.6229 54.5631 47.0733 54.5351 46.53 54.6171C46.4979 54.6203 46.4657 54.622 46.4334 54.6221C45.8437 54.6511 45.2525 54.6638 44.6645 54.7137C44.0753 54.7579 43.484 54.7679 42.8937 54.7438C42.1851 54.7381 41.4774 54.6948 40.7734 54.6144C39.8913 54.4923 39.0174 54.3166 38.1566 54.0881C37.5745 53.9342 37.0079 53.7346 36.4434 53.5281C35.6982 53.2533 34.9347 53.0311 34.1585 52.8629C33.9592 52.82 33.7574 52.7898 33.5542 52.7725C33.1693 52.7403 32.7833 52.7178 32.3974 52.6987C31.6793 52.6632 30.9627 52.6201 30.2489 52.5232C29.7063 52.4495 29.169 52.3497 28.6305 52.2546C28.5567 52.2416 28.481 52.2389 28.4062 52.2314Z" fill="#145E67"/>
<path d="M15.5005 17.9959C15.5321 17.9655 15.5674 17.9375 15.6126 17.9605C15.6793 17.9944 15.7406 18.0394 15.8085 18.0702C16.0004 18.1582 16.2156 18.1823 16.4222 18.1388C16.6288 18.0953 16.8159 17.9865 16.956 17.8286C17.2804 17.4391 17.5044 16.9761 17.6084 16.48C17.637 16.3207 17.631 16.1572 17.5908 16.0005C17.5178 15.6748 17.3808 15.3669 17.1876 15.0947C17.0792 14.9347 16.9592 14.7828 16.8286 14.6404C16.1112 13.8693 15.3119 13.1786 14.445 12.5806C13.881 12.2055 13.2573 11.9292 12.6005 11.7636C12.3521 11.6913 12.0906 11.6758 11.8353 11.7183C11.7191 11.7391 11.6077 11.7813 11.5069 11.8429C11.4229 11.8917 11.3531 11.9617 11.3044 12.0458C11.2558 12.1299 11.23 12.2252 11.2296 12.3224C11.227 12.4838 11.2559 12.6443 11.3149 12.7946C11.3627 12.9252 11.4234 13.0513 11.4816 13.178C11.493 13.2021 11.4987 13.2286 11.498 13.2553C11.4974 13.2821 11.4904 13.3082 11.4778 13.3318C12.3703 14.8628 13.6895 16.0236 14.9021 17.2766C15.1199 17.5017 15.4461 17.6352 15.5005 17.9959ZM3.70399 35.596C3.71913 35.5948 3.73435 35.5962 3.74903 35.6C3.9645 35.306 4.15974 34.9977 4.33341 34.6772C5.02797 33.5398 5.71383 32.3973 6.391 31.2494C6.86101 30.4503 7.14108 29.5538 7.2096 28.6292C7.24162 28.0944 7.23374 27.5579 7.18602 27.0243C7.19486 26.8408 7.14516 26.6592 7.04408 26.5057C7.0043 26.5556 6.96037 26.6029 6.92546 26.656C6.76721 26.8869 6.57438 27.092 6.35374 27.2643C5.84595 27.679 5.33785 28.0934 4.83676 28.5162C4.40525 28.8723 4.01178 29.2722 3.66266 29.7094C3.16756 30.324 2.85051 31.0626 2.74601 31.8448C2.68084 32.4231 2.72779 33.0086 2.88427 33.5692C3.01461 34.046 3.19014 34.5093 3.4085 34.9527C3.50973 35.1659 3.60566 35.3815 3.70399 35.596Z" fill="#392520"/>
<path d="M62.2152 59.6171C62.3275 59.6647 62.4238 59.7434 62.4927 59.8441C62.5616 59.9448 62.6002 60.0631 62.6038 60.185C62.6033 60.2598 62.6272 60.3328 62.6721 60.3928C62.7169 60.4527 62.7802 60.4963 62.8522 60.5169C63.7663 60.8835 64.6642 61.2901 65.5925 61.6212C65.7238 61.6704 65.8651 61.6872 66.0042 61.6702C66.1434 61.6532 66.2764 61.603 66.392 61.5237C66.7789 61.2557 67.1257 60.9342 67.4221 60.5687C67.0883 60.0462 66.723 59.5446 66.3282 59.0666C66.0923 58.7743 65.817 58.5163 65.5101 58.2998C65.2059 58.086 64.842 57.9737 64.4702 57.9788C64.0984 57.984 63.7377 58.1063 63.4395 58.3284C63.1028 58.5761 62.812 58.8809 62.5804 59.2289C62.5272 59.3092 62.4716 59.3879 62.4154 59.4661C62.3703 59.5401 62.2987 59.5941 62.2152 59.6171ZM14.272 58.4424C14.116 58.2264 13.9329 58.0322 13.7666 57.8259C13.5592 57.5687 13.3039 57.3537 13.1217 57.0754C13.0796 57.0277 13.031 56.9862 12.9774 56.9521C12.8342 57.2556 12.947 57.5637 12.9809 57.8631C13.088 58.8111 13.1808 59.7611 13.194 60.7137C13.1855 61.6354 13.1118 62.5555 12.9736 63.4669C12.9369 63.5908 12.9388 63.723 12.979 63.8458C13.3545 63.8289 13.7229 63.7371 14.0624 63.5759C14.1888 63.5267 14.2962 63.4385 14.369 63.324C14.4418 63.2096 14.4762 63.0749 14.4672 62.9396C14.4586 62.5851 14.4738 62.2297 14.454 61.8761C14.4354 61.5453 14.3844 61.2164 14.3477 60.8867C14.3453 60.8654 14.3412 60.8441 14.3404 60.8227C14.3125 60.0294 14.2243 59.2378 14.272 58.4424Z" fill="#F6C193"/>
<path d="M15.5005 17.9961C15.5019 17.9644 15.4929 17.927 15.5067 17.9021C15.5316 17.8665 15.5418 17.8228 15.5352 17.7799C15.5286 17.737 15.5056 17.6983 15.4711 17.672C15.4203 17.6168 15.3664 17.5643 15.3098 17.515C14.8906 17.2102 14.5583 16.8137 14.19 16.4556C13.6752 15.9552 13.2037 15.4128 12.7078 14.894C12.2973 14.4856 11.9567 14.0125 11.6995 13.4937C11.6804 13.4494 11.6497 13.411 11.6108 13.3826C11.5718 13.3541 11.5258 13.3367 11.4778 13.332C11.4756 13.3297 11.4729 13.3278 11.47 13.3266C11.467 13.3253 11.4638 13.3247 11.4606 13.3247C11.4574 13.3247 11.4543 13.3254 11.4513 13.3267C11.4484 13.328 11.4458 13.3299 11.4436 13.3323C11.3411 13.3642 11.2364 13.3902 11.1367 13.429C11.0844 13.4426 11.0358 13.4674 10.9941 13.5015C10.9523 13.5357 10.9184 13.5785 10.8948 13.627C10.8712 13.6755 10.8583 13.7286 10.8571 13.7825C10.8559 13.8365 10.8664 13.89 10.8879 13.9395C10.9338 14.1054 11.0073 14.2624 11.1053 14.4039C11.3537 14.766 11.6301 15.1082 11.9319 15.4273C12.2603 15.7661 12.5972 16.0997 12.8938 16.4653C13.1486 16.7699 13.4225 17.058 13.7138 17.3278C14.0464 17.6455 14.4031 17.9381 14.7505 18.2402C14.8511 18.3217 14.9664 18.3831 15.0901 18.421C15.1249 18.434 15.1621 18.4392 15.199 18.4361C15.236 18.433 15.2718 18.4218 15.3039 18.4033C15.3361 18.3847 15.3637 18.3593 15.3848 18.3288C15.406 18.2984 15.4201 18.2636 15.4262 18.227C15.4349 18.1853 15.456 18.1472 15.4869 18.1179L15.5005 17.9961Z" fill="#6A2E2E"/>
<path d="M20.4573 55.4664C20.3628 55.5381 20.2887 55.6331 20.242 55.7422C19.9709 56.1668 19.7032 56.5938 19.4467 57.0274C19.1434 57.5337 18.8895 58.0681 18.6887 58.6232C18.5449 59.0272 18.3834 59.424 18.2043 59.8136C18.6847 60.0518 19.1787 60.2618 19.6837 60.4425C19.674 60.2284 19.6941 60.014 19.7433 59.8053C19.7584 59.7209 19.7612 59.6346 19.7515 59.5494C19.7376 59.3675 19.7549 59.1846 19.8029 59.0085C19.8173 58.9458 19.8217 58.8812 19.8157 58.8171C19.8085 58.6992 19.8227 58.581 19.8576 58.4682C19.873 58.4169 19.8803 58.3636 19.8793 58.3101C19.9145 57.6067 20.0347 56.9101 20.2371 56.2355C20.3153 55.9806 20.3841 55.7228 20.4573 55.4664Z" fill="#145E67"/>
<path d="M7.0441 26.5056C7.03377 26.6235 7.04731 26.7423 7.0839 26.8548C7.09362 26.8741 7.09868 26.8954 7.09868 26.917C7.0784 27.3254 7.20119 27.7254 7.16941 28.1342C7.16826 28.209 7.15902 28.2835 7.14185 28.3563C7.11711 28.4496 7.10545 28.5459 7.1072 28.6425C7.08419 29.329 6.92049 30.0034 6.62625 30.624C6.42014 31.0364 6.19272 31.4378 5.94493 31.8266C5.69426 32.2509 5.44652 32.6769 5.19325 33.0996C4.99508 33.4303 4.78926 33.7565 4.58895 34.086C4.37195 34.4429 4.1527 34.7987 3.94418 35.1606C3.85356 35.2943 3.7875 35.4431 3.74908 35.6C3.76345 35.6125 3.78771 35.638 3.7907 35.6357C3.82483 35.613 3.8553 35.5852 3.88106 35.5533C4.67473 34.4443 5.40243 33.2895 6.06041 32.095C6.41471 31.4199 6.80333 30.7634 7.22474 30.128C7.28035 30.0361 7.34137 29.9477 7.40748 29.8631C7.54637 29.7149 7.63942 29.5297 7.67538 29.3298C7.6733 29.2872 7.67459 29.2446 7.67925 29.2022C7.80927 28.503 7.68887 27.8226 7.52741 27.145C7.51269 27.0832 7.5038 27.02 7.49219 26.9574C7.4514 26.7738 7.47309 26.5722 7.34118 26.4148C7.28463 26.3473 7.24804 26.2265 7.1199 26.316L7.09587 26.412C7.09143 26.448 7.07315 26.4809 7.0449 26.5036L7.0441 26.5056Z" fill="#6A2E2E"/>
<path d="M7.11988 26.3161C7.15978 26.3203 7.20624 26.3075 7.23053 26.3546C7.3123 26.5014 7.37835 26.6565 7.42758 26.8173C7.44508 26.8658 7.46669 26.9127 7.49217 26.9575C7.483 26.893 7.49542 26.8272 7.52752 26.7704C7.55962 26.7136 7.60958 26.669 7.66965 26.6435C7.993 26.4747 8.28003 26.244 8.51438 25.9645C8.71445 25.7557 8.87593 25.5132 8.99134 25.2481C9.01797 25.1869 9.04213 25.1297 8.99036 25.07C8.96799 25.0332 8.93522 25.004 8.8962 24.9859C8.85719 24.9678 8.81369 24.9617 8.77122 24.9684C8.54247 25.0173 8.31423 25.0695 8.08396 25.1101C7.85391 25.1506 7.62221 25.1834 7.39011 25.21C7.28379 25.2156 7.17808 25.2297 7.07403 25.2524C6.88381 25.2826 6.69073 25.2909 6.49861 25.277C6.41424 25.2806 6.32455 25.2642 6.26361 25.3464C6.3352 25.3909 6.40582 25.437 6.47863 25.4794C6.72636 25.6263 6.93484 25.8311 7.08623 26.0761C7.10921 26.1112 7.12414 26.1509 7.12996 26.1924C7.13578 26.2339 7.13234 26.2761 7.11988 26.3161ZM12.979 63.8459C13.0519 63.7025 13.0894 63.5437 13.0886 63.3829C13.1223 63.1526 13.1378 62.9177 13.1684 62.685C13.2171 62.3146 13.2137 61.9382 13.2505 61.5689C13.2857 61.2161 13.2938 60.866 13.2988 60.514C13.3154 60.3323 13.2985 60.1491 13.249 59.9734C13.2334 59.9001 13.2291 59.8247 13.2362 59.75C13.2523 59.5363 13.2333 59.3213 13.1799 59.1137C13.1675 59.0613 13.1649 59.0072 13.1721 58.9539C13.182 58.5589 13.1415 58.1643 13.0517 57.7796C13.0486 57.7693 13.047 57.7586 13.047 57.7478C13.0729 57.4783 12.9945 57.218 12.9774 56.9523C12.8017 56.7625 12.6723 56.5314 12.4612 56.3732C12.457 56.4268 12.4592 56.4807 12.4678 56.5338C12.5904 56.9664 12.6628 57.4097 12.7468 57.8502C12.7906 58.0803 12.8172 58.3149 12.8566 58.545C12.9188 58.9086 12.8667 59.2775 12.9242 59.6334C13.0109 60.1701 12.9531 60.7049 12.9765 61.2397C12.988 61.3471 12.975 61.4557 12.9383 61.5572C12.925 61.5867 12.918 61.6187 12.9177 61.651C12.9228 61.9723 12.9008 62.2934 12.8521 62.611C12.8487 62.75 12.8307 62.8883 12.7984 63.0236C12.7818 63.097 12.7772 63.1726 12.7848 63.2475C12.7836 63.4518 12.7847 63.6561 12.7849 63.8604C12.8496 63.8556 12.9143 63.8507 12.979 63.8459Z" fill="#E7B182"/>
<path d="M74.5916 64.6973C74.6689 64.6303 74.7265 64.5434 74.7581 64.4461C74.7897 64.3487 74.7941 64.2446 74.7709 64.145C74.7602 64.0643 74.7281 63.988 74.678 63.924C74.6279 63.8599 74.5615 63.8104 74.4858 63.7807C74.3775 63.7348 74.2659 63.6963 74.1547 63.6575C73.47 63.4357 72.8269 63.1014 72.252 62.6684C72.0073 62.4595 71.7283 62.2947 71.4273 62.1811C71.4256 62.412 71.6091 62.5383 71.7367 62.6827C72.4245 63.4851 73.2721 64.1353 74.2254 64.5917C74.3362 64.6582 74.4624 64.6946 74.5916 64.6973Z" fill="#F6C193"/>
<path d="M67.422 60.5688C67.2853 60.6312 67.1628 60.7209 67.0619 60.8323C66.872 61.0358 66.6665 61.2243 66.4473 61.3959C66.3219 61.4971 66.1714 61.5624 66.0118 61.5847C65.8522 61.607 65.6895 61.5854 65.5412 61.5223C65.1151 61.3494 64.6876 61.1802 64.2585 61.0148C63.8698 60.8641 63.4984 60.6702 63.0959 60.5536C63.0146 60.53 62.9425 60.4765 62.8627 60.4456C62.8027 60.4245 62.7482 60.3901 62.7034 60.345C62.6585 60.2999 62.6245 60.2452 62.6037 60.1851C62.5964 60.2692 62.589 60.3533 62.5815 60.4374C62.6975 60.5327 62.8302 60.6055 62.9729 60.6522C63.1877 60.749 63.4068 60.8363 63.6254 60.9246C64.0728 61.1054 64.5142 61.2983 64.9479 61.5109C65.3705 61.7271 65.8431 61.8262 66.3169 61.798C66.3807 61.7897 66.4414 61.7661 66.4941 61.7293C66.5468 61.6925 66.5898 61.6434 66.6194 61.5864C66.7833 61.351 66.9875 61.1466 67.2228 60.9826C67.339 60.9061 67.4349 60.8027 67.5025 60.6811C67.4757 60.6436 67.4489 60.6062 67.422 60.5688Z" fill="#E7B184"/>
<path d="M74.5916 64.6975C74.5395 64.6157 74.4428 64.62 74.3673 64.5858C73.7654 64.3105 73.2039 63.9544 72.6984 63.5272C72.3074 63.2119 71.9564 62.85 71.6535 62.4493C71.5849 62.355 71.5031 62.2703 71.4273 62.1812C71.4114 62.174 71.3941 62.1704 71.3765 62.1704C71.3327 62.1865 71.2465 62.1831 71.2926 62.2597C71.371 62.3873 71.4587 62.509 71.5548 62.6239C71.7427 62.8844 71.9535 63.1276 72.1847 63.3504C72.5329 63.6514 72.9022 63.9268 73.29 64.1746C73.5906 64.3628 73.9094 64.517 74.2255 64.6762C74.3182 64.7311 74.4231 64.7623 74.5308 64.767L74.5284 64.7651C74.5422 64.7366 74.564 64.7128 74.5911 64.6965L74.5916 64.6975Z" fill="#E8B283"/>
<path d="M74.5911 64.6963C74.5702 64.7191 74.5493 64.742 74.5284 64.7648C74.5442 64.7603 74.5584 64.7515 74.5695 64.7394C74.5805 64.7273 74.588 64.7124 74.5911 64.6963Z" fill="#F6C193"/>
<path d="M6.5904 37.5328C6.59107 37.617 6.59174 37.7011 6.59241 37.7852C6.5912 37.8114 6.59624 37.8376 6.6071 37.8615C6.61797 37.8854 6.63436 37.9064 6.65492 37.9228C6.69959 37.7797 6.72202 37.6305 6.72143 37.4806C6.7207 37.1282 6.7576 36.7767 6.8315 36.4321C6.89147 36.0301 6.99 35.6347 7.12571 35.2516C7.36824 34.5021 7.80864 33.832 8.40041 33.312C8.7633 32.9759 9.20606 32.738 9.6867 32.6209C9.70753 32.616 9.72639 32.6048 9.74079 32.589C9.75265 32.5723 9.76041 32.553 9.76346 32.5327C9.76437 32.5289 9.7481 32.5166 9.73889 32.5155C9.69787 32.5048 9.65522 32.5018 9.61311 32.5067C9.38388 32.5602 9.16221 32.642 8.95322 32.7503C8.58403 32.9687 8.24822 33.2391 7.95613 33.5533C7.74875 33.7701 7.56857 34.0114 7.41956 34.2718C7.12363 34.7831 6.90959 35.3376 6.78521 35.9151C6.71967 36.2282 6.64421 36.5405 6.60229 36.857C6.58471 37.0818 6.58074 37.3075 6.5904 37.5328ZM13.6614 37.0692C13.6999 36.6005 13.6724 36.1287 13.5798 35.6676C13.499 35.2378 13.3902 34.8136 13.2541 34.3979C13.176 34.1869 13.0815 33.9823 12.9715 33.7861C12.8593 33.6144 12.6977 33.4807 12.5079 33.4029C12.4279 33.3585 12.3496 33.24 12.2303 33.3369C12.2373 33.4624 12.353 33.4717 12.4299 33.5185C12.7446 33.7103 12.9793 34.0094 13.0908 34.3606C13.2546 34.8012 13.3697 35.2582 13.4343 35.7238C13.455 35.9135 13.5056 36.1 13.5405 36.2883C13.5528 36.3404 13.5581 36.3939 13.5561 36.4474C13.5524 36.6594 13.5881 36.8703 13.6614 37.0692Z" fill="#E8B283"/>
<path d="M14.1404 29.9211C14.1187 29.8992 14.0969 29.8773 14.0751 29.8555L14.1404 29.9211Z" fill="#EFC5B3"/>
</svg>
