<svg width="202" height="317" viewBox="0 0 202 317" fill="none" xmlns="http://www.w3.org/2000/svg">
<g clip-path="url(#clip0_2_34)">
<path d="M201 2.00002C182.5 58.5 128.045 89.3186 103.5 94.5C73 98 63.1876 94.6372 46.8607 86.2279C30.5338 77.8186 14.4911 63.4369 16.0001 45C16.9485 33.9849 24.6144 21.0887 35.5 20C47 17.5 60.2055 26.3979 61.8418 36.534C64.5 53 62.9451 57.1198 60.4602 67.1629C31.0001 131 -64.075 66.547 -129 99.5C-149.56 109.856 -117.905 250.531 -138.462 240.803C-149.299 235.8 -157.454 226.406 -163.776 216.417C-192.846 170.197 -126.247 65.1047 -170.888 33.7538C-202.192 12.0314 -244.209 42.6326 -262.244 67.0942C-310.598 133.066 -335.679 213.627 -360.864 291.476" stroke="#145E67" stroke-width="1.5" stroke-miterlimit="10" stroke-linecap="round" stroke-linejoin="round" stroke-dasharray="5.52 5.52"/>
</g>
<rect width="18.1656" height="18.1656" transform="translate(179 17.7017) rotate(-15)" fill="white" fill-opacity="0.01"/>
<path d="M190.835 26.78C190.835 29.2334 192.874 31.2223 195.388 31.2223L195.388 22.3707L190.835 25.4134L190.835 26.78Z" fill="#145E67"/>
<path d="M195.388 22.3705L195.388 18.2605C195.388 18.016 195.249 17.7917 195.027 17.6775C194.806 17.5634 194.538 17.578 194.33 17.7155L183.761 24.7547C185.176 26.7824 188.007 27.3081 190.086 25.9293L195.388 22.3705Z" fill="#145E67"/>
<defs>
<clipPath id="clip0_2_34">
<rect width="291.947" height="541.724" fill="white" transform="translate(192.329 24.4116) rotate(92.5828)"/>
</clipPath>
</defs>
</svg>
