<svg width="80" height="80" viewBox="0 0 80 80" fill="none" xmlns="http://www.w3.org/2000/svg">
<path d="M19.1471 43.7487C18.967 43.5348 18.7903 43.3181 18.6062 43.1077C17.9469 42.354 17.2863 41.6014 16.6244 40.85C16.0065 40.1459 15.3824 39.4472 14.7736 38.7354C14.0948 37.9419 13.4244 37.1413 12.7766 36.3218C12.1825 35.5702 11.5653 34.8369 10.9642 34.0908C10.6671 33.7221 10.386 33.3404 10.0925 32.9687C9.67228 32.4364 9.25194 31.904 8.82325 31.3786C8.03178 30.4098 7.37133 29.3411 6.85892 28.1999C6.68451 27.8169 6.59409 27.4009 6.59372 26.98C6.58917 26.204 6.70834 25.4322 6.94675 24.6937C7.27921 23.6696 7.6702 22.6655 8.1178 21.6863C8.32805 21.2257 8.53845 20.7655 8.77098 20.3157C8.93353 20.0118 9.11198 19.7168 9.30559 19.4317C9.35564 19.3427 9.42766 19.268 9.51477 19.2147C9.60189 19.1615 9.7012 19.1315 9.80323 19.1275C9.96321 19.1104 10.1245 19.1087 10.2848 19.1226C10.3694 19.134 10.4557 19.1324 10.5413 19.1367C10.879 18.9807 11.2191 19.1067 11.5564 19.1342C12.8216 19.2375 14.0383 19.519 15.1637 20.1333C15.4734 20.3056 15.7725 20.4964 16.0594 20.7046C16.3983 20.955 16.4165 21.2635 16.2935 21.6495C15.9245 22.8068 15.3296 23.8607 14.8224 24.9546C14.6532 25.3037 14.5035 25.6619 14.3741 26.0276C14.1017 26.8407 14.3404 27.5722 14.87 28.1599C16.3634 29.8172 18.0388 31.2955 19.6276 32.8594C20.0484 33.2736 20.5132 33.6457 20.9729 34.0201C22.0227 34.8749 23.2696 35.218 24.5668 35.4448C25.0308 35.5259 25.51 35.5536 25.9378 35.7859C26.0827 36.1573 26.1346 36.5585 26.0891 36.9546C26.0168 37.8771 25.893 38.7954 25.8063 39.7171C25.7519 40.5341 25.788 41.3546 25.9141 42.1637C26.1742 44.209 26.7535 46.2009 27.6309 48.0667C27.6981 48.2258 27.7892 48.3736 27.9011 48.5052C27.958 48.5496 28.0006 48.6097 28.0239 48.678C27.679 49.2724 27.5244 49.9327 27.3721 50.5916C27.2028 51.3241 27.0693 52.0635 26.9716 52.8099C26.8982 53.3745 26.8378 53.9402 26.7803 54.5065C26.7293 55.0086 26.6604 55.5088 26.6065 56.0106C26.572 56.331 26.5694 56.6559 26.5185 56.9733C26.4449 57.4323 26.4934 57.8981 26.4174 58.356C26.4043 58.4737 26.4007 58.5924 26.4065 58.7107C26.405 59.2705 26.3952 59.8306 26.4066 60.3901C26.4201 61.0567 26.4371 61.7239 26.4824 62.3889C26.5065 62.7431 26.5148 63.0977 26.5389 63.4515C26.5652 63.8371 26.6132 64.2212 26.6442 64.6066C26.6658 64.8743 26.6728 65.1427 26.7162 65.4092C26.7541 65.6422 26.747 65.8844 26.8036 66.1117C26.829 66.1764 26.8281 66.2485 26.8011 66.3126C26.7741 66.3767 26.7232 66.4278 26.6592 66.4549C26.6335 66.474 26.6102 66.4961 26.5896 66.5206C26.5321 66.626 26.437 66.7057 26.3232 66.7441C25.2801 67.1614 24.2204 67.456 23.0805 67.21C22.7858 67.1463 22.4847 67.114 22.1886 67.0551C22.0374 67.0376 21.8976 66.9664 21.7945 66.8546C21.5442 66.7531 21.318 66.6 21.1309 66.4053C21.0751 66.3538 21.0396 66.2842 21.0305 66.209C21.012 65.9733 20.9643 65.7413 20.965 65.5027C20.9674 64.6196 20.9702 63.7363 20.9574 62.8532C20.9486 62.3372 20.913 61.8219 20.8507 61.3095C20.8152 61.0108 20.7985 60.7098 20.7673 60.4105C20.7371 60.122 20.7011 59.8342 20.6639 59.5466C20.6322 59.3013 20.6274 59.0542 20.5911 58.8083C20.5425 58.4794 20.5363 58.1443 20.5065 57.8124C20.4739 57.4485 20.4351 57.0853 20.3992 56.7217C20.396 56.6896 20.3939 56.6573 20.3918 56.6251C20.3652 56.2173 20.3433 55.8091 20.3107 55.4018C20.2799 55.0163 20.235 54.632 20.2015 54.2466C20.1718 53.9039 20.1524 53.5602 20.1227 53.2174C20.0902 52.8428 20.0511 52.4688 20.0151 52.0945C20.0099 52.0409 20.0041 51.9873 20.0019 51.9336C19.9828 51.4713 19.9295 51.0123 19.8794 50.5527C19.8432 50.2215 19.828 49.8881 19.7969 49.5563C19.7648 49.2141 19.7235 48.8727 19.6886 48.5307C19.6593 48.242 19.6338 47.9529 19.606 47.6639C19.5803 47.3965 19.5554 47.1289 19.5274 46.8616C19.4893 46.4983 19.4431 46.1358 19.4113 45.772C19.3696 45.5939 19.3511 45.4111 19.3563 45.2282C19.5086 45.136 19.6491 45.2275 19.7894 45.2628C20.8666 45.5332 21.8304 46.0573 22.7975 46.5843C23.8084 47.1352 24.7745 47.7714 25.8136 48.1883C25.0713 47.8335 24.31 47.4346 23.5681 46.9958C22.6901 46.4767 21.9442 45.7893 21.1472 45.1667C20.5024 44.663 19.8679 44.145 19.1471 43.7487Z" fill="#145E67"/>
<path d="M27.8872 48.597C27.7833 48.5378 27.7029 48.4449 27.6593 48.3337C27.4423 47.9247 27.2524 47.502 27.0907 47.0683C26.9078 46.5626 26.7239 46.0568 26.5609 45.5446C26.3376 44.8265 26.1516 44.0974 26.0035 43.3601C25.8984 42.8545 25.8504 42.3416 25.7636 41.8342C25.7616 41.8236 25.7605 41.8128 25.7601 41.8021C25.7504 41.1569 25.6377 40.5125 25.7033 39.8686C25.7151 39.5358 25.7473 39.2041 25.7997 38.8752C25.8423 38.6876 25.8266 38.4916 25.8604 38.2989C25.9123 38.0037 25.923 37.7013 25.9516 37.402C25.9598 37.3166 25.963 37.23 25.9795 37.1461C26.0165 36.9552 26.0198 36.7594 25.9894 36.5675C25.9663 36.408 25.9533 36.2472 25.9507 36.086C25.9608 35.9889 25.9386 35.8912 25.8876 35.8079C26.0099 35.6383 26.18 35.7045 26.33 35.7326C27.04 35.8747 27.7169 36.1492 28.3253 36.5417C28.83 36.853 29.3651 37.112 29.9223 37.3146C30.5278 37.5392 31.088 37.4176 31.6328 37.1318C32.4355 36.7043 33.1247 36.0915 33.6431 35.3443C34.3206 34.3934 34.9429 33.4126 35.2969 32.2862C35.3784 32.0266 35.3833 31.7549 35.4392 31.4915C35.443 31.3507 35.4967 31.2158 35.5908 31.1109C36.205 31.2958 36.7988 31.5461 37.4265 31.6878C37.694 31.7671 37.9712 31.8086 38.2501 31.8111C38.8117 31.8678 39.3755 31.7285 39.846 31.4168C40.078 31.2688 40.2754 31.0726 40.425 30.8416C40.5745 30.6106 40.6726 30.3502 40.7127 30.0779C40.8151 29.4296 40.8356 28.7709 40.7735 28.1175C40.7474 28.0123 40.7607 27.9013 40.8109 27.8053C41.0937 27.5943 41.3852 27.6604 41.6786 27.7773C41.7848 27.8422 41.8769 27.9279 41.9494 28.0292C42.0218 28.1305 42.0731 28.2453 42.1003 28.3668C42.3862 29.6918 42.8707 30.9666 43.0655 32.3158C43.3163 33.9653 43.4183 35.6339 43.3701 37.3016C43.3318 37.7299 43.3152 38.1598 43.3202 38.5897C43.3514 39.071 43.5162 39.1588 43.9391 38.93C44.3255 38.7063 44.6234 38.3566 44.7828 37.9394C45.37 36.627 45.6442 35.196 45.5836 33.7594C45.5544 33.5792 45.5107 33.4017 45.453 33.2285C45.4286 33.1116 45.3853 32.9462 45.6182 32.9993C45.7691 33.0771 45.9204 33.1545 46.071 33.233C46.1513 33.2618 46.2222 33.312 46.2762 33.3781C46.4196 34.1208 46.3278 34.8565 46.2249 35.5947C46.1026 36.611 45.8943 37.6151 45.6021 38.5962C45.2229 39.8682 44.4138 40.9691 43.313 41.7108C42.8852 42.0006 42.4403 42.2636 42.0263 42.576C41.7184 42.8083 41.5621 42.7707 41.3046 42.4844C41.1644 42.2948 41.0076 42.1181 40.8359 41.9564C40.7985 42.0931 40.7887 42.2358 40.8072 42.3763C40.8257 42.5167 40.8721 42.652 40.9437 42.7743C41.0809 43.0703 41.0058 43.2611 40.7931 43.4865C39.6325 44.7162 38.2578 45.6617 36.7816 46.4512C35.7051 47.0017 34.5569 47.3989 33.3704 47.6314C33.0229 47.7063 32.671 47.7669 32.3283 47.8574C31.4556 48.0877 30.5595 48.0884 29.6707 48.1611C29.3596 48.1865 29.0497 48.2226 28.7391 48.2519C28.4242 48.267 28.1238 48.3887 27.8872 48.597Z" fill="#FB625A"/>
<path d="M46.3927 33.4514C46.7638 33.4347 47.1146 33.5538 47.4743 33.6133C47.8876 33.6817 48.3032 33.7322 48.718 33.7885C49.1353 33.8451 49.5573 33.8135 49.9713 33.8907C50.0462 33.9005 50.1218 33.9035 50.1971 33.8996C51.0702 33.8999 51.9433 33.8998 52.8163 33.8993C53.273 33.815 53.7385 33.8612 54.1987 33.7968C54.6363 33.7482 55.0711 33.677 55.5013 33.5834C55.9816 33.4637 56.4542 33.3154 56.9167 33.1392C58.5165 32.5323 60.1227 31.9427 61.7574 31.4357C63.1132 31.0152 64.4748 30.6135 65.8307 30.1932C66.4336 30.0296 67.019 29.8071 67.5784 29.5289C67.9979 29.3086 68.3976 29.0527 68.7732 28.764C69.3286 28.338 69.9077 27.9438 70.5078 27.5834C70.6708 27.4776 70.848 27.3956 71.0341 27.3397C71.0878 27.3217 71.1445 27.3147 71.2009 27.3192C71.2574 27.3238 71.3123 27.3397 71.3624 27.366C71.4125 27.3924 71.4567 27.4286 71.4924 27.4725C71.5281 27.5164 71.5545 27.5671 71.5701 27.6216C71.6184 27.7436 71.5973 27.8768 71.6483 28.0081C71.8383 27.9661 72.0238 27.906 72.2023 27.8286C72.3832 27.7605 72.5672 27.7 72.7462 27.6274C72.8427 27.5918 72.9455 27.5766 73.0482 27.583C73.1508 27.5893 73.2511 27.617 73.3424 27.6642C73.5445 27.7419 73.7253 27.8664 73.8701 28.0274C74.0148 28.1884 74.1194 28.3814 74.1752 28.5906C74.2209 28.8023 74.2012 29.0229 74.1188 29.2233C74.0152 29.5312 73.8251 29.8027 73.5711 30.0053C73.2819 30.2308 72.9632 30.4156 72.6239 30.5546C71.8426 30.8896 71.0558 31.2115 70.2751 31.5477C69.8844 31.7008 69.4798 31.816 69.0669 31.8915C68.1538 32.1019 67.2702 32.4241 66.4359 32.8508C65.7122 33.2096 64.9839 33.5581 64.2454 33.8856C63.6451 34.1518 63.0563 34.4441 62.4535 34.7043C61.209 35.2415 59.9813 35.8236 58.6753 36.2044C58.0047 36.3999 57.3259 36.5671 56.6518 36.7507C55.7284 37.0022 54.7912 37.192 53.853 37.3763C53.5162 37.4425 53.1739 37.4814 52.8337 37.5305C52.4617 37.5842 52.0892 37.634 51.7172 37.6877C51.3452 37.7414 50.9738 37.7985 50.602 37.853C50.347 37.8904 50.0917 37.9249 49.8368 37.9628C49.6134 37.996 49.3875 38.0064 49.1633 38.0312C48.7149 38.0809 48.262 38.0906 47.8108 38.1134C47.5854 38.1248 47.3611 38.1355 47.1357 38.1588C46.824 38.1777 46.5116 38.1808 46.1996 38.1679C46.3031 37.9357 46.5138 38.0387 46.677 38.0291C47.0523 38.0072 47.0614 38.0009 46.9673 37.6326C46.8233 37.0693 46.6952 36.5019 46.5177 35.9472C46.4757 35.6729 46.4745 35.3938 46.5143 35.1192C46.6009 34.613 46.5603 34.0931 46.396 33.6065C46.3744 33.5573 46.3733 33.5015 46.3927 33.4514ZM40.8285 27.8216C40.8248 27.8644 40.8256 27.9076 40.8311 27.9503C40.9497 28.4491 40.8678 28.9555 40.8913 29.4578C40.8168 29.7376 40.8395 30.0316 40.7608 30.3116C40.6429 30.7727 40.3609 31.175 39.9676 31.4431C39.6863 31.6391 39.3714 31.7817 39.0385 31.8639C38.9454 31.8882 38.8497 31.9011 38.7535 31.9022C38.5815 31.9019 38.4095 31.9016 38.2376 31.9014C38.1525 31.8533 38.0877 31.7761 38.0549 31.684C37.8304 31.1188 37.4344 30.6381 36.9225 30.3096C35.8509 29.5691 34.7128 28.9312 33.6256 28.2142C33.1912 27.9009 32.8991 27.4532 32.559 27.0546C31.2872 25.5641 30.0456 24.048 28.7889 22.5446C26.8402 20.2134 24.9636 17.8258 23.1589 15.3819C22.5439 14.551 21.8989 13.7423 21.2614 12.9282C21.1728 12.815 21.0426 12.7095 21.0913 12.5326C21.715 11.9345 22.1602 11.2411 22.254 10.3593C22.2556 10.3324 22.263 10.3061 22.2757 10.2822C22.2884 10.2584 22.306 10.2375 22.3274 10.2211C22.3696 10.254 22.4097 10.2893 22.4476 10.327C22.9665 10.9028 23.4848 11.4792 24.0026 12.0561C24.1973 12.272 24.3942 12.4856 24.5856 12.7047C24.954 13.1263 25.3146 13.5541 25.6752 13.9822C26.0219 14.3939 26.3822 14.7942 26.7387 15.1976C27.2091 15.7301 27.6808 16.2615 28.1535 16.7919C28.5543 17.2424 28.9557 17.6924 29.3577 18.1419C29.8158 18.6565 30.2734 19.1716 30.7307 19.687C30.7521 19.7111 30.7744 19.7346 30.7968 19.758C31.2811 20.2638 31.7576 20.7775 32.2519 21.2734C32.9134 21.9371 33.5996 22.5751 34.3215 23.1737C34.7441 23.524 35.1606 23.8818 35.5864 24.228C35.8954 24.4792 36.2105 24.7227 36.5319 24.9584C36.7137 25.0916 36.9136 25.2 37.1039 25.3219C37.4122 25.5193 37.7197 25.7179 38.0264 25.9179C38.0823 25.9685 38.1533 25.9992 38.2285 26.0054C38.8919 26.4231 39.5217 26.8922 40.1979 27.29C40.2228 27.3047 40.2468 27.3208 40.2698 27.3381C40.3045 27.3625 40.3381 27.3886 40.3728 27.4123C40.4799 27.4737 40.4818 27.394 40.5059 27.3224C40.5297 27.2516 40.515 27.1023 40.67 27.2046C40.7082 27.4141 40.7743 27.6163 40.8285 27.8216ZM16.0444 20.7825C15.9627 20.7308 15.8794 20.6814 15.7995 20.627C14.9092 20.018 13.9012 19.602 12.8404 19.4061C12.3759 19.319 11.9069 19.2737 11.4399 19.2099C11.1399 19.1689 10.8394 19.1755 10.5413 19.137C10.651 18.9276 10.7639 18.7199 10.8696 18.5086C11.1253 17.9978 11.413 17.5047 11.698 17.0102C11.8162 16.805 11.9435 16.6044 12.0524 16.3943C12.4243 15.6767 12.8327 14.9802 13.2454 14.2857C13.5589 13.7581 13.8667 13.2269 14.1632 12.6896C14.5119 12.0578 14.8521 11.4214 15.1839 10.7804C15.5304 10.1105 15.8097 9.40947 16.1112 8.71879C16.1301 8.68082 16.1511 8.64391 16.174 8.60823C16.1895 8.61126 16.205 8.6143 16.2206 8.61708C16.5267 8.68913 16.8471 8.67227 17.144 8.56847C17.5515 8.4291 17.7166 8.20141 17.6901 7.77351C17.6806 7.69373 17.6995 7.61314 17.7433 7.54581C17.7872 7.47849 17.8533 7.42869 17.9301 7.40511C18.4797 7.1392 18.4792 7.13537 18.4407 6.52831C18.4348 6.46969 18.4413 6.41049 18.4599 6.35457C18.4784 6.29865 18.5085 6.24726 18.5482 6.20375C19.076 5.60019 19.0625 5.06875 18.5105 4.47118C18.5996 4.25269 18.6875 4.03374 18.7778 3.81577C19.0113 3.23655 19.2016 2.64085 19.3472 2.03354C19.3916 1.85617 19.4406 1.67997 19.488 1.50336C19.494 1.48267 19.5011 1.46233 19.5093 1.4424C19.6207 1.15453 19.7931 1.10427 20.0251 1.30407C20.2697 1.51626 20.4816 1.76341 20.6539 2.03751C20.9364 2.49734 21.1299 3.00619 21.2243 3.53754C21.3109 4.00398 21.3162 4.48188 21.2399 4.95012C21.1585 5.52631 21.1322 6.10892 21.1611 6.6901C21.1797 6.9587 21.2312 7.224 21.3145 7.48004C21.3845 7.71722 21.4723 7.94942 21.559 8.18132C21.6939 8.50948 21.7964 8.85005 21.8649 9.19817C21.8284 9.58093 21.9292 9.96227 21.8531 10.3485C21.7133 11.0278 21.3774 11.6512 20.8868 12.1414C20.8447 12.1854 20.7769 12.2139 20.7778 12.2911C20.2877 12.6331 19.7217 12.7486 19.1473 12.8384C19.1043 12.8423 19.0611 12.8432 19.018 12.8409C18.3026 12.8483 18.2978 12.8474 18.1646 13.5374C18.0145 14.343 17.8148 15.1385 17.5667 15.9195C17.1901 17.0796 16.9904 18.2865 16.6498 19.4566C16.551 19.7985 16.4317 20.1341 16.2925 20.4616C16.2383 20.5882 16.1965 20.7294 16.0444 20.7825Z" fill="#F9B673"/>
<path d="M45.6182 32.9993C45.5294 33.0101 45.4561 33.0625 45.5043 33.1467C45.7088 33.5039 45.6851 33.8915 45.68 34.2784C45.6786 34.386 45.6764 34.4939 45.6803 34.6014C45.6702 34.9221 45.6346 35.2415 45.574 35.5566C45.5092 35.9802 45.4141 36.3987 45.2894 36.8087C45.1524 37.418 44.9013 37.9959 44.5495 38.512C44.3551 38.782 44.0842 38.9876 43.7718 39.1021C43.7108 39.1228 43.6499 39.1441 43.5881 39.1623C43.4374 39.2068 43.3301 39.1611 43.2978 39.0098C43.2487 38.8562 43.2217 38.6964 43.2178 38.5352C43.2322 38.3207 43.2207 38.1046 43.2217 37.8892C43.2122 37.7925 43.2223 37.6949 43.2515 37.6022C43.2844 37.4993 43.2959 37.3908 43.2852 37.2834C43.2859 36.6264 43.3009 35.9689 43.2794 35.3126C43.2679 34.9604 43.2342 34.6069 43.203 34.2556C43.186 34.0647 43.1562 33.8737 43.1568 33.6808C43.1575 33.4865 43.0583 33.3049 43.0873 33.1077C42.9797 32.8766 43.0751 32.6119 42.9669 32.381C42.8947 31.7749 42.7713 31.176 42.5982 30.5907C42.4713 30.1254 42.3409 29.6606 42.1941 29.2014C42.128 28.9947 42.1135 28.7812 42.0676 28.5725C42.0232 28.2945 41.8819 28.041 41.6688 27.857C41.7365 27.69 41.9178 27.7158 42.0382 27.6381C42.5861 27.4476 43.0949 27.1595 43.5402 26.7879C43.9287 26.4798 44.2118 26.093 44.0329 25.5353C43.9255 25.2004 44.0543 24.8806 44.1404 24.5609C44.2593 24.235 44.3933 23.9215 44.6876 23.7053C44.8344 23.5852 45.0119 23.5088 45.2 23.4848C45.3881 23.4607 45.5791 23.49 45.7513 23.5693C46.0661 23.7118 46.4074 23.7859 46.7528 23.7869C47.2278 23.7807 47.5019 23.5456 47.583 23.0928C47.6651 22.6341 47.6651 22.6341 48.1305 22.6281C48.1735 22.6275 48.2166 22.6267 48.2594 22.6262C48.8551 22.5856 48.8717 22.5864 48.8442 23.1829C48.834 23.6209 48.7545 24.0545 48.6087 24.4676C48.7867 23.9449 48.8684 23.3943 48.8499 22.8424C48.8343 22.7632 48.8401 22.6813 48.8667 22.605C48.8933 22.5288 48.9397 22.4611 49.0012 22.4088C49.4821 22.0497 49.619 21.5285 49.6713 20.9665C49.6839 20.8303 49.6083 20.6546 49.8063 20.58C49.854 20.6026 49.8989 20.6306 49.9401 20.6635C50.4099 21.1355 50.6303 21.6975 50.5043 22.3619C50.4102 22.8364 50.3789 23.3213 50.4111 23.804C50.4113 24.1632 50.5469 24.5091 50.791 24.7726C50.8667 24.8491 50.9343 24.9332 50.9927 25.0235C51.0428 25.0931 51.0806 25.1707 51.1045 25.253C51.1723 25.5294 51.0846 25.7011 50.8237 25.8326C50.8045 25.8422 50.785 25.8514 50.7655 25.8603C50.4752 25.9928 50.448 26.0321 50.4724 26.349C50.4842 26.5633 50.508 26.7766 50.5439 26.9882C50.599 27.3822 50.6162 27.7805 50.5951 28.1778C50.5946 28.8297 50.222 29.0913 49.6712 29.1755C49.4792 29.2067 49.2831 29.2021 49.0928 29.162C48.8383 29.1184 48.5795 29.1058 48.3221 29.1244C48.2158 29.1347 48.1106 29.1538 48.0075 29.1815C47.0325 29.0092 46.1059 28.6298 45.29 28.0689C45.2363 28.0335 45.1878 27.9903 45.1323 27.9575C45.0864 27.9303 45.0353 27.8962 44.985 27.9373C44.936 27.9774 44.9536 28.0343 44.9729 28.0848C45.0129 28.1728 45.0623 28.2562 45.1201 28.3337C45.5429 28.9423 46.0313 29.5028 46.5764 30.0049C46.6816 30.1076 46.8147 30.1933 46.8488 30.3535C46.734 30.5819 46.6055 30.8032 46.4638 31.016C46.211 31.4865 45.9419 31.9486 45.7361 32.4428C45.6433 32.6128 45.6023 32.8062 45.6182 32.9993ZM21.7945 66.8548C22.1848 66.9672 22.5834 67.0486 22.9865 67.0982C23.2396 67.1383 23.4929 67.1778 23.7472 67.2088C23.8642 67.2255 23.9828 67.2279 24.1004 67.2159C24.4944 67.1806 24.8849 67.1128 25.2678 67.0133C25.7233 66.8922 26.166 66.7273 26.5897 66.5209C26.7585 67.1322 26.891 67.7531 26.9864 68.3801C27.0667 68.9003 27.1609 69.4186 27.2305 69.9402C27.3444 70.7933 27.5079 71.637 27.6991 72.4751C27.8455 73.1482 28.0333 73.8115 28.2614 74.4614C28.4313 74.9503 28.6786 75.4087 28.9939 75.8192C29.2922 76.2048 29.6944 76.4973 30.1533 76.6622C30.5271 76.7993 30.9152 76.8938 31.3103 76.9442C31.5461 76.9739 31.7813 76.9838 32.0168 77.0037C32.4259 77.0246 32.8275 77.1213 33.2014 77.2888C33.4919 77.4293 33.7918 77.5503 34.0883 77.6782C34.2507 77.7384 34.3963 77.8367 34.5129 77.9649C34.5921 78.0541 34.647 78.1622 34.6725 78.2788C34.6979 78.3954 34.693 78.5165 34.6582 78.6307C34.6338 78.7248 34.5839 78.8104 34.514 78.878C34.4441 78.9456 34.3569 78.9926 34.262 79.0138C34.0301 79.0791 33.792 79.0587 33.5594 79.1108C33.3274 79.1577 33.0916 79.1836 32.855 79.1881C31.6603 79.2343 30.4658 79.2983 29.2694 79.262C29.0646 79.2558 28.858 79.2721 28.6552 79.25C28.0106 79.1795 27.3637 79.2146 26.7184 79.1907C26.3843 79.1766 26.0549 79.1067 25.7439 78.9839C25.5477 78.9055 25.3715 78.7842 25.2284 78.6287C25.0853 78.4733 24.9788 78.2878 24.9168 78.0858C24.8204 77.8002 24.7552 77.505 24.7224 77.2053C24.6664 76.7684 24.6311 76.3288 24.5775 75.8916C24.4875 75.1652 24.3101 74.4523 24.049 73.7685C23.8275 73.1843 23.5772 72.6124 23.3446 72.033C23.1722 71.6036 23.0135 71.1685 22.8593 70.7321C22.619 70.0521 22.3783 69.372 22.1554 68.6861C21.9603 68.0929 21.8391 67.4778 21.7945 66.8548Z" fill="#F9B673"/>
<path d="M48.2647 22.7089C48.1037 22.7199 47.9427 22.7304 47.7818 22.742C47.7546 22.7416 47.7284 22.7521 47.7089 22.771C47.6895 22.79 47.6783 22.8159 47.6779 22.843C47.6734 22.8965 47.6786 22.9506 47.6773 23.0044C47.6819 23.1181 47.6634 23.2316 47.6229 23.3379C47.5824 23.4443 47.5208 23.5413 47.4416 23.6231C47.3625 23.7049 47.2676 23.7697 47.1627 23.8138C47.0578 23.8578 46.945 23.88 46.8312 23.8791C46.4967 23.8903 46.1637 23.8312 45.8535 23.7057C45.8335 23.6976 45.8141 23.6883 45.7952 23.6779C45.1855 23.3642 44.7107 23.6975 44.4577 24.0843C44.3611 24.2508 44.2743 24.4229 44.1979 24.5996C43.9004 24.8655 43.914 25.2281 43.9784 25.5546C44.0626 25.9822 43.9252 26.2701 43.6234 26.5526C43.2832 26.871 42.9554 27.194 42.5088 27.3617C42.1187 27.5082 41.8977 27.3954 41.7768 26.9919C41.7278 26.7602 41.7038 26.5238 41.7055 26.287C41.675 25.9016 41.5564 25.7547 41.2205 25.6633C40.9668 25.4521 40.8877 25.1252 40.6967 24.8719C40.6388 24.7186 40.7503 24.589 40.7568 24.4446C40.7597 24.2614 40.7939 24.0801 40.8581 23.9085C41.0445 23.2233 41.2634 22.5479 41.4953 21.877C41.6289 21.4901 41.7977 21.1163 41.9998 20.7603C42.2503 20.2867 42.6123 19.8811 43.0546 19.5786C43.4968 19.2761 44.006 19.0857 44.5383 19.0238C45.264 18.9203 45.9993 18.9003 46.7296 18.9644C47.3091 19.014 47.8792 19.1427 48.4238 19.347C48.7985 19.4863 49.1386 19.7048 49.421 19.9877C49.5613 20.1209 49.674 20.2804 49.7528 20.4572C49.7647 20.4991 49.7602 20.5441 49.7402 20.5828C49.7202 20.6216 49.6862 20.6513 49.6451 20.6659C49.5463 20.6338 49.4599 20.5408 49.341 20.6036C49.2959 20.5978 49.2523 20.5832 49.2128 20.5607C48.1606 20.4433 47.5477 21.0681 47.6874 22.1196C47.6845 22.2482 47.7058 22.3763 47.7501 22.4971C47.8231 22.5877 47.9284 22.551 48.02 22.5688C48.1157 22.5874 48.2489 22.5481 48.2647 22.7089Z" fill="#392520"/>
<path d="M46.3927 33.4512C46.6219 33.7106 46.6186 34.0409 46.6425 34.3528C46.6648 34.6287 46.6508 34.9064 46.601 35.1787C46.5729 35.4438 46.568 35.7109 46.5863 35.9769C46.5914 36.7319 46.4365 37.4795 46.1318 38.1704C46.0642 38.2673 46.0207 38.379 46.005 38.4961C45.8738 39.0077 45.6822 39.5018 45.4343 39.9681C45.2783 40.2514 45.0907 40.5161 44.8752 40.7572C44.1328 41.5842 43.279 42.3038 42.3383 42.8955C41.718 43.2854 41.1369 43.7346 40.6032 44.2366C40.2037 44.6124 39.8235 45.0105 39.3897 45.3505C38.7825 45.8339 38.1182 46.2408 37.4117 46.5621C36.93 46.7769 36.4375 46.9666 35.9362 47.1306C35.7421 47.1943 35.5515 47.269 35.3591 47.338C34.4263 47.6699 33.4662 47.9192 32.4898 48.0831C32.2037 48.132 31.9178 48.1812 31.6312 48.2268C31.3005 48.2793 30.9668 48.2953 30.6357 48.3179C30.2066 48.3472 29.7752 48.3561 29.3475 48.4044C28.8973 48.445 28.4532 48.5368 28.0239 48.678C27.9712 48.6629 27.9156 48.6527 27.8871 48.5968C27.8897 48.5424 27.9079 48.4899 27.9396 48.4457C27.9712 48.4014 28.015 48.3672 28.0656 48.3472C28.1598 48.2952 28.2608 48.2566 28.3658 48.2326C28.5829 48.1717 28.8073 48.1404 29.0329 48.1393C29.1297 48.151 29.2279 48.14 29.3197 48.1071C29.3592 48.0898 29.4018 48.0808 29.445 48.0806C29.8757 48.0991 30.2984 47.9715 30.7302 48.0115C31.0094 48.0187 31.2883 47.987 31.5587 47.9171C32.1583 47.8051 32.7559 47.6812 33.3521 47.552C33.6558 47.4862 33.9546 47.3984 34.2557 47.3209C34.8669 47.1532 35.4665 46.9461 36.0508 46.7007C36.5215 46.5169 36.972 46.2851 37.3951 46.009C37.9406 45.6459 38.493 45.2933 39.0369 44.9278C39.2231 44.8027 39.3955 44.6561 39.569 44.513C39.9943 44.1496 40.401 43.765 40.7874 43.3606C40.8329 43.3147 40.8768 43.2669 40.9251 43.224C40.9554 43.201 40.9753 43.167 40.9805 43.1293C40.9858 43.0917 40.9758 43.0535 40.9529 43.0232C40.8509 42.8217 40.7757 42.6078 40.7293 42.3868C40.696 42.2289 40.6877 42.0667 40.7047 41.9062C40.706 41.8873 40.7125 41.869 40.7234 41.8535C40.7343 41.838 40.7493 41.8258 40.7666 41.8181C40.784 41.8104 40.8031 41.8076 40.8219 41.81C40.8408 41.8124 40.8586 41.8199 40.8735 41.8317C40.9091 41.8558 40.9413 41.8847 40.969 41.9177C41.081 42.0613 41.1869 42.2097 41.3006 42.3518C41.4012 42.4776 41.498 42.6395 41.6627 42.655C41.7427 42.6494 41.8207 42.628 41.8922 42.5918C41.9637 42.5557 42.0273 42.5056 42.0792 42.4445C42.248 42.2946 42.4316 42.1621 42.627 42.049C43.0045 41.8224 43.367 41.5718 43.7122 41.2987C43.9928 41.0816 44.2448 40.83 44.4625 40.55C44.5347 40.4566 44.6219 40.3743 44.6904 40.2785C45.0007 39.8385 45.2471 39.3568 45.4223 38.8477C45.6373 38.2521 45.8035 37.64 45.9193 37.0175C45.9888 36.682 46.0403 36.343 46.0737 36.0021C46.0895 35.7794 46.1678 35.5607 46.1792 35.3383C46.1941 35.0484 46.2794 34.7666 46.2621 34.4744C46.2438 34.1645 46.3033 33.8504 46.205 33.5444C46.1962 33.5127 46.1984 33.4789 46.2114 33.4487C46.2243 33.4184 46.2471 33.3935 46.2761 33.3779C46.315 33.4023 46.3539 33.4267 46.3927 33.4512Z" fill="#C98A94"/>
<path d="M16.174 8.60812C16.1932 8.51291 16.1871 8.41432 16.1561 8.32224C16.0888 8.14142 16.0454 7.95258 16.0269 7.76052C15.9724 7.3578 16.0622 7.01391 16.4104 6.77575C16.542 6.68209 16.6483 6.55712 16.7195 6.41213C16.7908 6.26714 16.8249 6.10668 16.8186 5.94524C16.817 5.77376 16.8354 5.60268 16.8737 5.43551C16.9271 5.21521 17.0528 5.01913 17.2306 4.87852C17.4084 4.7379 17.6281 4.66084 17.8548 4.65961C18.0477 4.67234 18.2413 4.66811 18.4334 4.64697C18.4876 4.75082 18.5214 4.86279 18.5791 4.96674C18.8145 5.3905 18.778 5.69157 18.444 6.04322C18.3649 6.11609 18.3025 6.20527 18.2611 6.30459C18.2198 6.40392 18.2005 6.51104 18.2046 6.61854C18.2172 6.74856 18.1865 6.87908 18.1175 6.98994C18.0484 7.1008 17.9447 7.18583 17.8225 7.23189C17.7184 7.27596 17.6305 7.35098 17.5705 7.44675C17.5105 7.54253 17.4814 7.65444 17.4872 7.7673C17.4879 7.93066 17.4279 8.08846 17.3188 8.21009C17.2098 8.33173 17.0594 8.40854 16.8969 8.42563C16.6532 8.45717 16.4148 8.52179 16.1885 8.6177L16.174 8.60812Z" fill="#F6C193"/>
<path d="M19.1471 43.7491C19.1795 43.7069 19.2177 43.7137 19.2604 43.7325C19.4481 43.8141 19.6265 43.9158 19.7923 44.0357C20.0873 44.2504 20.3794 44.4692 20.6684 44.6921C20.9571 44.9146 21.2409 45.1432 21.5261 45.3702C21.8364 45.6172 22.1512 45.8591 22.4536 46.1154C22.6382 46.2795 22.8346 46.4298 23.0412 46.5651C23.4241 46.8035 23.8048 47.0451 24.1958 47.2712C24.7189 47.5736 25.2682 47.8223 25.8024 48.1015C25.8784 48.1413 25.953 48.1839 26.0256 48.2295C26.0323 48.237 26.0371 48.246 26.0394 48.2558C26.0418 48.2656 26.0417 48.2758 26.0391 48.2855C26.0347 48.2945 26.0282 48.3023 26.0202 48.3083C26.0123 48.3143 26.003 48.3183 25.9931 48.32C25.9614 48.323 25.9294 48.3188 25.8996 48.3076C25.3542 48.0779 24.8227 47.8168 24.3076 47.5254C23.8762 47.2839 23.4604 47.0151 23.0136 46.7991C22.7048 46.6498 22.4169 46.4575 22.1136 46.2959C21.6874 46.066 21.2489 45.8596 20.8001 45.6776C20.3271 45.5025 19.8452 45.3526 19.3563 45.2286C19.2866 44.7354 19.2168 44.2422 19.1471 43.7491Z" fill="#145E67"/>
<path d="M40.7568 24.4443C40.7886 24.5861 40.7059 24.7276 40.7553 24.8694C40.5757 24.9678 40.5837 25.1051 40.6426 25.2798C40.7042 25.4623 40.9009 25.5709 40.8998 25.7818C40.5893 26.1408 40.3969 26.5867 40.3487 27.0589C40.3332 27.1709 40.345 27.2994 40.2346 27.3806C40.1846 27.3629 40.1362 27.3411 40.0898 27.3155C39.5405 26.9553 38.9923 26.5933 38.4453 26.2295C38.3595 26.1721 38.2496 26.1293 38.2284 26.0055C38.4775 25.7865 38.7437 25.5878 39.0246 25.4115C39.4004 25.164 39.8212 24.993 40.263 24.908C40.2893 24.9056 40.3147 24.8975 40.3375 24.8843C40.3604 24.8711 40.3801 24.8531 40.3953 24.8316C40.4253 24.7891 40.4654 24.7284 40.5066 24.7236C40.6794 24.7035 40.7083 24.5679 40.7568 24.4443Z" fill="#392520"/>
<path d="M46.8488 30.3535C46.7756 30.2914 46.6984 30.2333 46.63 30.1663C46.4077 29.9484 46.1901 29.7257 45.9681 29.5075C45.5812 29.1076 45.2351 28.6701 44.935 28.2015C44.8739 28.1253 44.8406 28.0307 44.8405 27.9331C44.8392 27.9091 44.8442 27.8852 44.8549 27.8637C44.8656 27.8423 44.8817 27.8239 44.9017 27.8105C44.9216 27.7971 44.9447 27.7891 44.9686 27.7872C44.9925 27.7854 45.0166 27.7898 45.0383 27.8C45.0875 27.8211 45.1341 27.8479 45.1769 27.8801C45.5055 28.1385 45.8643 28.356 46.2454 28.5279C46.7342 28.7712 47.2524 28.9505 47.7871 29.0615C47.8733 29.0713 47.9524 29.1144 48.0074 29.1815C47.6745 29.3365 47.3923 29.5827 47.1934 29.8914C47.0977 30.0588 46.982 30.214 46.8488 30.3535ZM16.1885 8.61782C16.2089 8.59303 16.2259 8.56569 16.2392 8.53648C16.2445 8.50476 16.2603 8.47576 16.2842 8.45418C16.308 8.4326 16.3385 8.41969 16.3705 8.41757C16.551 8.3983 16.7315 8.37711 16.9105 8.34757C17.0104 8.3249 17.1042 8.28116 17.1858 8.21926C17.2674 8.15736 17.3348 8.07875 17.3835 7.98868C17.4011 7.94948 17.4085 7.90649 17.4051 7.86366C17.4085 7.77773 17.4037 7.69144 17.408 7.60558C17.4062 7.52434 17.4289 7.44444 17.4733 7.37636C17.5176 7.30828 17.5815 7.2552 17.6566 7.2241C17.7359 7.19067 17.8127 7.15145 17.8862 7.10675C17.9646 7.06949 18.0293 7.00859 18.0713 6.93263C18.1133 6.85667 18.1304 6.76946 18.1203 6.68327C18.1121 6.61977 18.1208 6.55427 18.1182 6.48983C18.1155 6.41437 18.1289 6.3392 18.1575 6.26933C18.1861 6.19947 18.2293 6.13651 18.2842 6.08467C18.3218 6.04622 18.3627 6.01069 18.3979 5.97025C18.4877 5.86731 18.6275 5.79731 18.6341 5.63788C18.6675 5.43484 18.6328 5.22646 18.5356 5.04514C18.4999 4.99183 18.4785 4.92106 18.4304 4.88554C18.311 4.79734 18.3899 4.72552 18.4334 4.64718C18.4591 4.58847 18.4848 4.52981 18.5105 4.4712C18.559 4.45333 18.6178 4.41193 18.6553 4.46916C18.7928 4.65972 18.9005 4.87017 18.9745 5.09322C19.034 5.34354 19.0225 5.60552 18.9411 5.84963C18.8936 6.00626 18.7898 6.13976 18.6497 6.22443C18.5876 6.25742 18.5407 6.31315 18.5187 6.37996C18.4968 6.44677 18.5016 6.51947 18.532 6.58284C18.5596 6.66411 18.573 6.74948 18.5719 6.83528C18.5811 6.93776 18.5582 7.04055 18.5063 7.12943C18.4545 7.21831 18.3763 7.28888 18.2826 7.33135C18.1572 7.39199 18.0313 7.45213 17.9036 7.50782C17.7493 7.57509 17.7459 7.57339 17.7765 7.74123C17.8016 7.82917 17.808 7.92141 17.7953 8.01198C17.7825 8.10255 17.7509 8.18944 17.7025 8.26701C17.6228 8.38224 17.5194 8.47908 17.3992 8.55103C17.2112 8.65488 17.0034 8.71786 16.7894 8.73583C16.6286 8.74594 16.4674 8.74676 16.3065 8.73828C16.2904 8.73988 16.2741 8.73784 16.2589 8.73232C16.2437 8.72679 16.2299 8.71792 16.2186 8.70636C16.2073 8.6948 16.1987 8.68084 16.1935 8.66552C16.1883 8.65019 16.1866 8.63389 16.1885 8.61782ZM20.7751 12.2392C20.7282 12.2033 20.7447 12.1687 20.776 12.1327C20.9304 11.9552 21.088 11.7802 21.2376 11.5987C21.4343 11.3428 21.5789 11.0508 21.663 10.7391C21.777 10.4148 21.8265 10.0714 21.8087 9.72811C21.7974 9.60021 21.807 9.4705 21.807 9.34161C21.8051 9.31487 21.8093 9.28804 21.8194 9.26318C21.8294 9.23831 21.845 9.21607 21.865 9.19815C21.9148 9.33758 21.9397 9.48469 21.9385 9.63275C21.9373 9.69075 21.9488 9.74831 21.9723 9.80138C21.9957 9.85446 22.0304 9.90176 22.0741 9.93998C22.1636 10.0285 22.2434 10.127 22.3274 10.2211C22.3436 10.9094 22.0471 11.4826 21.6607 12.0211C21.5537 12.1815 21.4291 12.3296 21.2895 12.4626C21.2391 12.519 21.1689 12.5537 21.0935 12.5595C20.9091 12.5306 20.8478 12.3792 20.7751 12.2392ZM46.1318 38.1706C46.161 37.9073 46.2165 37.6477 46.2973 37.3955C46.3672 37.0643 46.4448 36.7347 46.5121 36.403C46.5229 36.3185 46.5259 36.2332 46.5209 36.1481C46.5168 36.1164 46.5206 36.0842 46.532 36.0544C46.5435 36.0245 46.5621 35.998 46.5863 35.9771C46.649 36.0372 46.6864 36.119 46.6908 36.2057C46.7865 36.5998 46.9244 36.9826 46.9865 37.3862C47.0303 37.5846 47.0853 37.7803 47.1512 37.9724C47.1567 37.9877 47.1584 38.0042 47.1561 38.0203C47.1538 38.0364 47.1475 38.0517 47.1378 38.0648C47.1282 38.078 47.1155 38.0885 47.1008 38.0956C47.0861 38.1026 47.0699 38.1059 47.0536 38.1052C46.8498 38.1111 46.6459 38.1099 46.4421 38.1134C46.358 38.1149 46.2682 38.096 46.1996 38.168C46.177 38.1688 46.1544 38.1697 46.1318 38.1706Z" fill="#E8B385"/>
<path d="M49.2907 20.4998L49.3521 20.5785C49.4343 20.7182 49.3324 20.8261 49.2808 20.936C49.1151 21.3341 49.0277 21.7604 49.0236 22.1916C49.3682 21.8849 49.4903 21.4785 49.5394 21.0382C49.5544 20.9033 49.51 20.754 49.6319 20.6441C49.6722 20.5817 49.7125 20.5193 49.7528 20.4569C49.7725 20.4703 49.7879 20.4889 49.7974 20.5107C49.8069 20.5325 49.8099 20.5566 49.8062 20.58C49.7203 20.6327 49.7594 20.7149 49.7634 20.7842C49.7788 21.097 49.7291 21.4095 49.6173 21.7021C49.5196 22.0246 49.313 22.3032 49.0327 22.4904C48.9951 22.5105 48.9643 22.5413 48.944 22.5788C48.9237 22.6163 48.9149 22.6589 48.9186 22.7014C48.9309 23.0458 48.9088 23.3905 48.8526 23.7305C48.8109 24.0397 48.7293 24.3422 48.6096 24.6304C48.5782 24.7224 48.5227 24.8042 48.4489 24.8674C48.4397 24.871 48.4298 24.8725 48.42 24.8715C48.4102 24.8705 48.4007 24.8672 48.3925 24.8618C48.3783 24.8512 48.3628 24.8208 48.3685 24.8088C48.4095 24.7215 48.4657 24.6404 48.4986 24.5505C48.7113 23.9736 48.8068 23.3599 48.7795 22.7456C48.7762 22.6681 48.7348 22.6427 48.6452 22.6588C48.523 22.7006 48.3936 22.7175 48.2647 22.7087C48.2426 22.6866 48.2156 22.67 48.1859 22.6603C48.1562 22.6506 48.1246 22.648 48.0937 22.6527C47.979 22.6529 47.8644 22.6536 47.7497 22.6518C47.7236 22.653 47.6978 22.6461 47.6759 22.6318C47.6539 22.6176 47.6371 22.5968 47.6276 22.5724C47.8013 22.4501 48.0003 22.5039 48.189 22.4961C48.6126 22.4785 48.6645 22.4337 48.6991 22.0201C48.7341 21.6034 48.836 21.195 49.0008 20.8106C49.0586 20.6752 49.1092 20.5239 49.2907 20.4998Z" fill="#49322D"/>
<path d="M35.5941 31.1302C35.4481 30.5211 35.112 30.0141 34.7302 29.5331C34.3842 29.0971 34.0327 28.6656 33.684 28.2317C33.664 28.2068 33.6472 28.1792 33.6289 28.1529C33.6935 28.1523 33.7564 28.1733 33.8077 28.2126C34.0472 28.3751 34.2945 28.5266 34.5306 28.694C35.0213 29.0418 35.5509 29.3263 36.0589 29.6457C36.4707 29.8962 36.8671 30.1711 37.246 30.469C37.4983 30.6836 37.7199 30.9319 37.9045 31.2069C37.9896 31.3308 38.0586 31.4651 38.1098 31.6064C38.1484 31.7063 38.1947 31.8032 38.2376 31.9015C38.0131 31.912 37.7884 31.8836 37.5736 31.8175C36.957 31.6831 36.3672 31.457 35.7678 31.2636C35.6871 31.2376 35.6542 31.1711 35.5941 31.1302Z" fill="#E8B385"/>
<path d="M41.8898 27.6554C41.7149 27.5826 41.5675 27.4563 41.4688 27.2947C41.37 27.133 41.3249 26.9443 41.34 26.7554C41.3388 26.6159 41.3536 26.4766 41.384 26.3404C41.4167 26.2263 41.4212 26.1061 41.3972 25.9899C41.3942 25.9745 41.3882 25.9598 41.3795 25.9466C41.3708 25.9335 41.3596 25.9223 41.3465 25.9135C41.3334 25.9047 41.3188 25.8986 41.3033 25.8955C41.2879 25.8924 41.272 25.8923 41.2566 25.8954C41.203 25.8981 41.1512 25.9149 41.1062 25.9441C41.0612 25.9733 41.0247 26.0139 41.0004 26.0616C40.7869 26.3976 40.6567 26.7797 40.6208 27.1761C40.5334 27.2986 40.617 27.4438 40.5673 27.5833C40.4649 27.5688 40.3717 27.5163 40.3062 27.4361C40.2873 27.4133 40.2639 27.3946 40.2375 27.3811L40.2346 27.3807C40.2476 27.0851 40.2964 26.7923 40.3799 26.5085C40.4582 26.2322 40.6067 25.9809 40.8111 25.7792C40.8303 25.759 40.87 25.7585 40.9001 25.7489C40.9888 25.6667 41.131 25.7235 41.2145 25.6277C41.2246 25.6085 41.2402 25.5927 41.2593 25.5825C41.2784 25.5722 41.3002 25.5678 41.3218 25.57C41.3966 25.5821 41.4674 25.612 41.5282 25.6572C41.589 25.7024 41.638 25.7616 41.6711 25.8298C41.7582 25.9917 41.8018 26.1734 41.7979 26.3571C41.781 26.5828 41.805 26.8097 41.8687 27.0268C41.8862 27.0889 41.9116 27.1484 41.9444 27.2039C41.9843 27.2679 42.0454 27.3158 42.117 27.3392C42.1887 27.3626 42.2663 27.36 42.3362 27.3318C42.6879 27.2256 43.0083 27.0347 43.269 26.7759C43.4215 26.6085 43.5826 26.4493 43.7517 26.2987C43.8334 26.2356 43.8932 26.1484 43.9227 26.0495C43.9522 25.9506 43.95 25.8449 43.9163 25.7473C43.8435 25.4432 43.8499 25.1256 43.9348 24.8247C43.9508 24.7286 43.9961 24.6398 44.0643 24.5703C44.1175 24.5225 44.1616 24.5515 44.1979 24.5994C44.1844 24.6621 44.1737 24.7255 44.1568 24.7872C44.0598 25.0968 44.0631 25.4292 44.1662 25.7368C44.1936 25.8124 44.2036 25.8933 44.1953 25.9733C44.1871 26.0534 44.1608 26.1305 44.1185 26.199C43.9648 26.5077 43.7356 26.7727 43.4522 26.9693C43.1603 27.1696 42.8565 27.352 42.5426 27.5155C42.3909 27.5951 42.2308 27.6576 42.0652 27.7017L41.9715 27.6847C41.9462 27.6702 41.9185 27.6603 41.8898 27.6554Z" fill="#1E1411"/>
<path d="M40.2375 27.3814C40.2536 27.3811 40.2693 27.3864 40.2818 27.3965C40.2944 27.4065 40.303 27.4206 40.3063 27.4364C40.29 27.4373 40.274 27.4322 40.2613 27.4221C40.2486 27.4119 40.2402 27.3974 40.2375 27.3814Z" fill="#392520"/>
<path d="M44.5851 25.2746C44.5796 25.2404 44.5818 25.2053 44.5916 25.1719C44.6014 25.1386 44.6184 25.1079 44.6416 25.082C44.7548 24.9371 44.9091 24.8299 45.0843 24.7744C45.1453 24.7573 45.1528 24.6977 45.1063 24.6474C45.0654 24.6136 45.027 24.5769 44.9912 24.5376C44.9847 24.529 44.9801 24.5191 44.9777 24.5085C44.9753 24.4979 44.9753 24.487 44.9776 24.4764C44.9798 24.4658 44.9844 24.4558 44.9909 24.4471C44.9973 24.4385 45.0056 24.4313 45.0151 24.4261C45.04 24.413 45.0894 24.4051 45.1033 24.4191C45.1651 24.4706 45.2134 24.5363 45.2443 24.6105C45.2751 24.6848 45.2874 24.7655 45.2802 24.8456C45.2727 24.8992 45.2354 24.9589 45.1781 24.9549C45.0656 24.9398 44.9515 24.9688 44.8597 25.0357C44.768 25.1027 44.7056 25.2025 44.6857 25.3144C44.6845 25.3199 44.6818 25.3251 44.6781 25.3294C44.6743 25.3337 44.6696 25.3369 44.6642 25.3389C44.6588 25.3408 44.6531 25.3413 44.6475 25.3404C44.6418 25.3395 44.6365 25.3372 44.632 25.3337C44.6138 25.3162 44.598 25.2964 44.5851 25.2746Z" fill="#E8B385"/>
<path d="M49.2907 20.4996C49.0535 20.8324 48.9007 21.2179 48.8456 21.6229C48.8021 21.8552 48.7816 22.0912 48.7846 22.3275C48.7904 22.3706 48.7791 22.4142 48.7531 22.4491C48.7271 22.4839 48.6885 22.5071 48.6455 22.5138C48.5323 22.546 48.4165 22.5686 48.2994 22.5813C48.0765 22.6153 47.8495 22.6123 47.6276 22.5723C47.6166 22.4125 47.6136 22.2517 47.5926 22.0932C47.5597 21.8164 47.5893 21.5358 47.6791 21.2719C47.727 21.1016 47.8182 20.9466 47.9438 20.8221C48.0695 20.6976 48.2253 20.6078 48.396 20.5615C48.6272 20.4786 48.8711 20.4366 49.1167 20.4373C49.1485 20.4338 49.1807 20.4376 49.2108 20.4484C49.241 20.4592 49.2683 20.4767 49.2907 20.4996Z" fill="#F6C193"/>
<path d="M49.6319 20.6441C49.6489 20.922 49.6223 21.2009 49.553 21.4706C49.4889 21.7087 49.3805 21.9327 49.2333 22.1306C49.1724 22.2286 49.0818 22.3048 48.9747 22.3479C48.8964 22.3126 48.9229 22.2511 48.9245 22.2049C48.9267 21.7004 49.0467 21.2033 49.2749 20.7533C49.305 20.6974 49.3266 20.6369 49.3522 20.5785C49.3647 20.5622 49.3787 20.5471 49.3938 20.5332C49.4772 20.4678 49.5135 20.467 49.572 20.537C49.5953 20.5707 49.6154 20.6065 49.6319 20.6441Z" fill="#F6C193"/>
<path d="M41.2145 25.6276C41.2125 25.7887 41.2042 25.799 41.0789 25.7814C41.019 25.773 40.9597 25.7598 40.9002 25.7488C40.6994 25.6041 40.5613 25.3883 40.5143 25.1453C40.5011 25.0829 40.4976 25.0187 40.5041 24.9551C40.5082 24.8752 40.5615 24.8397 40.6627 24.8453C40.6943 24.8501 40.7254 24.8582 40.7553 24.8693C40.9427 25.0996 41.0972 25.3548 41.2145 25.6276Z" fill="#D3818B"/>
<path d="M41.8898 27.6555C41.8967 27.6503 41.9048 27.6469 41.9133 27.6456C41.9219 27.6443 41.9306 27.6452 41.9388 27.6481C41.9469 27.651 41.9542 27.6559 41.9599 27.6623C41.9657 27.6687 41.9698 27.6765 41.9718 27.6849C41.9321 27.709 41.9016 27.7082 41.8898 27.6555Z" fill="#D4A89F"/>
</svg>
