<svg width="80" height="80" viewBox="0 0 80 80" fill="none" xmlns="http://www.w3.org/2000/svg">
<path d="M42.0398 44.7464C42.265 44.3671 42.4443 43.9623 42.574 43.5406C42.6441 43.2975 42.6922 43.0485 42.7178 42.7968C42.7743 42.2279 42.8328 41.6588 42.9123 41.0928C42.9718 40.6447 43.0917 40.2068 43.2687 39.7908C43.6656 38.8394 44.3184 38.0165 45.1547 37.4136C45.6077 37.0797 46.1137 36.8245 46.6516 36.6587C47.0206 36.5493 47.3819 36.4144 47.7581 36.3271C47.9184 36.2899 48.0722 36.2254 48.2295 36.1751C48.4803 36.0889 48.7095 35.9495 48.9015 35.7665C49.3005 35.4007 49.6352 34.9704 49.8917 34.4937C50.5313 33.3366 51.1629 32.1752 51.8012 31.0174C52.4183 29.8983 53.0425 28.7831 53.6581 27.6632C53.934 27.1611 54.1993 26.6531 54.4642 26.1451C54.7169 25.6545 54.8935 25.1283 54.9879 24.5845C55.08 24.2087 55.0977 23.8186 55.0401 23.436C55.0293 23.3595 55.0263 23.2821 55.0311 23.2051C55.0292 22.753 55.035 22.3009 55.025 21.849C55.027 21.3974 55.0525 20.9462 55.1013 20.4973C55.152 19.9716 55.2387 19.45 55.3608 18.9362C55.6771 17.5733 56.1358 16.2473 56.7293 14.9803C57.2172 13.9068 57.7744 12.8662 58.3971 11.8649C58.5603 11.6033 58.738 11.3506 58.9145 11.0976C58.9859 10.9999 59.0629 10.9064 59.1453 10.8178C59.1975 10.753 59.2646 10.7019 59.341 10.669C59.4173 10.636 59.5006 10.6221 59.5835 10.6286C59.647 10.609 59.7149 10.6083 59.7788 10.6267C60.6061 10.8938 61.398 11.2606 62.1368 11.719C62.2367 11.7794 62.3386 11.8626 62.3053 12.0113C62.298 12.222 62.2273 12.4257 62.1025 12.5956C61.7663 13.0874 61.5021 13.6247 61.3178 14.1912C60.7492 15.7996 60.1886 17.411 59.7026 19.0468C59.5273 19.6367 59.3574 20.2291 59.2288 20.8321C59.1035 21.3918 59.0834 21.9699 59.1695 22.5369C59.24 22.982 59.3119 23.4271 59.3687 23.874C59.4476 24.4083 59.4718 24.9492 59.4409 25.4884C59.3831 26.3787 59.2013 27.2567 58.9006 28.0967C58.6518 28.7674 58.4153 29.4432 58.1278 30.099C57.9245 30.5628 57.7243 31.0281 57.5121 31.4879C56.8799 32.8577 56.285 34.2427 55.7423 35.651C55.3465 36.6779 54.9582 37.7081 54.5087 38.714C54.207 39.389 53.8485 40.0334 53.4944 40.6805C53.2883 41.0571 53.0691 41.4266 52.8565 41.7998C52.8058 41.8723 52.7722 41.9553 52.758 42.0426C52.6557 42.2862 52.5155 42.512 52.3426 42.7119C51.4344 43.9114 50.5599 45.1331 49.4956 46.2132C48.7495 46.9705 47.9756 47.7053 47.2803 48.5132C47.2553 48.515 47.2309 48.5221 47.2088 48.534C47.1867 48.5459 47.1674 48.5624 47.1521 48.5822C46.9742 48.7226 46.8567 48.5848 46.7614 48.4751C45.4919 47.0129 43.8587 46.0255 42.2501 45.0054C42.1521 44.9433 42.0179 44.9073 42.0398 44.7464Z" fill="#145E67"/>
<path d="M47.2803 48.513C47.3689 48.3015 47.5041 48.1127 47.676 47.9607C48.1168 47.516 48.5783 47.0902 48.9982 46.6266C49.3961 46.1871 49.8279 45.7805 50.2197 45.3377C50.603 44.9045 50.9482 44.4369 51.3014 43.9777C51.6014 43.5879 51.8903 43.1894 52.1816 42.7929C52.3111 42.6165 52.4387 42.4384 52.5587 42.2555C52.6061 42.1688 52.6747 42.0955 52.7581 42.0425C52.9689 42.4543 53.1532 42.8791 53.3097 43.3145C53.6049 44.0742 53.8771 44.8429 54.203 45.5906C54.3174 45.8531 54.4224 46.1203 54.5482 46.3772C55.1597 47.6363 55.6711 48.9416 56.0778 50.2809C56.5107 51.6927 57.0414 53.0726 57.6662 54.4105C57.8669 54.8396 58.0839 55.2612 58.297 55.6845C58.8112 56.7009 59.5269 57.6021 60.4005 58.3331C61.5678 59.3308 62.5528 60.5238 63.3115 61.8588C63.6981 62.5281 64.0199 63.2292 64.3573 63.9226C64.6128 64.4478 64.8735 64.9703 65.1393 65.49C65.5644 66.3001 65.9389 67.1357 66.2607 67.9921C66.5057 68.6662 66.8015 69.3175 67.1011 69.9679C67.2115 70.2077 67.3003 70.4573 67.4036 70.7005C67.4555 70.8235 67.4573 70.9621 67.4084 71.0864C67.3953 71.2463 67.2646 71.2977 67.1486 71.3499C66.5462 71.6085 65.9133 71.7892 65.2652 71.8876C65.0515 71.9239 64.8213 71.9251 64.6889 71.6877C64.5013 71.4575 64.3449 71.2036 64.2237 70.9325C63.8918 70.2365 63.5218 69.5593 63.1153 68.904C62.7172 68.2568 62.3221 67.6073 61.9045 66.9727C61.4808 66.3288 61.0317 65.7018 60.593 65.0679C60.2608 64.5879 59.9228 64.1119 59.5957 63.6285C59.1084 62.8941 58.5714 62.1939 57.9885 61.5327C57.523 61.002 56.9946 60.53 56.4148 60.1272C56.0869 59.9044 55.7595 59.6807 55.4269 59.4651C54.6955 59.0049 54.0981 58.3602 53.695 57.5958C53.6289 57.4689 53.5508 57.348 53.4893 57.2189C53.1165 56.4811 52.6658 55.7854 52.1447 55.1437C51.1953 53.915 50.2511 52.6823 49.3121 51.4455C48.7577 50.718 48.2491 49.9583 47.7481 49.1934C47.5973 48.9633 47.4365 48.7396 47.2803 48.513Z" fill="#145E67"/>
<path d="M31.9855 58.6443C32.1045 58.4721 32.2483 58.3185 32.4123 58.1884C32.7675 57.8767 33.1284 57.5716 33.4951 57.273C33.9893 56.8705 34.4896 56.4755 34.9894 56.08C35.2221 55.8959 35.4569 55.7143 35.696 55.5386C35.9074 55.3805 36.0945 55.1922 36.2511 54.9796C36.6298 54.466 36.9643 53.9211 37.2509 53.351C37.8583 52.1784 38.3838 50.9686 38.88 49.7452C39.2022 48.9506 39.5386 48.1618 39.9003 47.3839C40.0396 47.0608 40.1985 46.7465 40.3763 46.4429C40.4398 46.3139 40.5435 46.209 40.6717 46.144C40.7895 46.0436 40.8986 46.1175 41.0103 46.1596C41.4644 46.3316 41.8957 46.5588 42.2945 46.836C43.3559 47.5709 44.5091 48.1575 45.5797 48.8775C45.922 49.1198 46.2298 49.4073 46.495 49.7321C46.7073 49.9605 46.8359 50.2541 46.8596 50.5651C47.0625 51.2044 47.2192 51.8574 47.3286 52.5192C47.3404 52.6066 47.3459 52.6947 47.3448 52.7828C47.344 52.9481 47.3582 53.1131 47.3874 53.2757C47.4041 53.3625 47.4073 53.4513 47.397 53.539C47.3214 54.4188 47.0555 55.2717 46.6178 56.0387C46.2288 56.7041 45.7882 57.338 45.3001 57.9346C44.8852 58.4623 44.475 58.9942 44.0451 59.5095C43.8128 59.788 43.5442 60.0364 43.2908 60.2972C42.9148 60.7006 42.4899 61.0553 42.0259 61.3532C41.4251 61.7226 40.8271 62.1014 40.1555 62.329C39.5027 62.5616 38.8284 62.7285 38.1424 62.8273C37.784 62.8734 37.4332 62.9765 37.0777 63.0473C36.6814 63.1394 36.2773 63.194 35.8707 63.2102C35.7505 63.2205 35.6318 63.2451 35.5174 63.2834C34.5897 63.4733 33.6678 63.5119 32.7601 63.1779C32.6885 63.152 32.6268 63.1046 32.5834 63.0421C32.5479 62.9277 32.614 62.8763 32.7077 62.8418C32.7942 62.8384 32.8806 62.8518 32.962 62.8811C35.0226 63.275 36.8916 62.9423 38.4815 61.4714C39.1764 60.8284 39.2731 60.0291 39.1588 59.1672C38.9744 57.7761 38.207 56.7512 37.0792 55.9738C36.4924 55.5695 36.0197 55.6007 35.4531 56.0439C34.4903 56.7971 33.5455 57.5727 32.5983 58.3451C32.5089 58.4147 32.4234 58.489 32.3419 58.5677C32.2321 58.6347 32.1308 58.7429 31.9855 58.6443Z" fill="#FB625A"/>
<path d="M32.7218 62.8789C32.6913 62.8904 32.6636 62.9082 32.6403 62.9311C32.6171 62.9539 32.5988 62.9814 32.5867 63.0117C31.5559 64.1393 30.7039 65.4258 29.5575 66.4497C28.868 67.0656 28.1796 67.6813 27.5275 68.3375C27.3464 68.516 27.1341 68.6598 26.9011 68.7618C26.8127 68.7598 26.7265 68.789 26.6574 68.8441C26.0084 69.3198 25.406 69.8562 24.8584 70.4458C24.7312 70.5825 24.6177 70.7324 24.503 70.8801C24.045 71.4615 23.4739 71.9441 22.8243 72.2987C22.4114 72.5304 22.0068 72.7768 21.5962 73.0125C21.1091 73.292 20.6197 73.5674 20.1309 73.8438C19.2963 74.3158 18.4481 74.7622 17.5827 75.1748C17.1155 75.3974 16.6423 75.6072 16.1725 75.8243C16.0425 75.8844 15.9162 75.9525 15.7862 76.0126C15.522 76.1283 15.2993 76.3218 15.1478 76.5672C14.9974 76.8279 14.7575 77.0252 14.4727 77.1223C14.3048 77.1737 14.1328 77.2106 13.9587 77.2329C13.5027 77.3008 13.046 77.3652 12.5884 77.4214C12.294 77.4575 11.9972 77.4738 11.702 77.5037C11.3742 77.5369 11.047 77.5752 10.7196 77.6117C10.6978 77.6141 10.6764 77.6215 10.6546 77.623C9.89815 77.6972 9.13744 77.7189 8.37797 77.688C7.91541 77.6749 7.45767 77.5901 7.02109 77.4367C6.83199 77.3751 6.65867 77.2728 6.51331 77.1371C6.46313 77.0934 6.42445 77.038 6.40066 76.9759C6.37687 76.9137 6.3687 76.8467 6.37686 76.7807C6.38503 76.7146 6.40928 76.6516 6.44749 76.5971C6.4857 76.5426 6.5367 76.4984 6.59602 76.4682C6.83 76.3445 7.08647 76.269 7.35019 76.2464C7.78434 76.1804 8.21843 76.1115 8.65467 76.0629C8.89478 76.0362 9.13563 76.0026 9.3759 75.9902C9.61711 75.9712 9.85718 75.9398 10.0951 75.896C10.6808 75.805 11.2641 75.6968 11.8453 75.5803C12.3331 75.4965 12.8138 75.3755 13.2831 75.2184C13.5122 75.1387 13.7299 75.0297 13.931 74.8942C14.2384 74.6807 14.5463 74.4679 14.8547 74.2558C14.9114 74.2029 14.9047 74.1138 14.9647 74.0625C15.5359 73.6924 16.0804 73.2827 16.5943 72.8364C16.6911 72.7551 16.8117 72.6806 16.8358 72.5356C17.0311 72.467 17.2075 72.3531 17.3504 72.2034C17.6555 71.9183 17.9764 71.6503 18.2904 71.3748C18.4888 71.2007 18.6844 71.0235 18.8825 70.8492C19.6838 70.1441 20.5147 69.4763 21.3752 68.8458C21.7561 68.5665 22.1606 68.319 22.5574 68.0617C22.6561 68.0129 22.7417 67.9413 22.8072 67.8528C23.3363 67.4808 23.8908 67.1459 24.3917 66.7322C24.7534 66.4651 25.0333 66.1023 25.1999 65.6846C25.4198 65.0797 25.8352 64.5809 26.2618 64.106C27.0781 63.1973 27.878 62.2806 28.4626 61.1952C28.7182 60.7207 29.0852 60.3175 29.3976 59.8792C29.4435 59.8032 29.5131 59.7445 29.5956 59.7121C29.8862 59.3774 30.2906 59.1623 30.7305 59.1084C31.1759 59.0402 31.6029 58.8823 31.9855 58.6443C32.1065 58.6233 32.2221 58.5787 32.3259 58.5131C32.8854 58.1198 33.5474 58.0375 34.1913 57.9048C34.6323 57.8138 35.0812 57.7695 35.5278 57.7137C35.9674 57.6572 36.414 57.7283 36.8143 57.9186C37.4074 58.1953 37.7506 59.0178 37.4428 59.6229C37.1712 60.1777 36.7459 60.6428 36.2176 60.9629C35.3718 61.4807 34.4781 61.9065 33.6034 62.3686C33.3025 62.5276 33.0495 62.7677 32.7218 62.8789ZM62.3053 12.0113C62.2403 11.8833 62.1347 11.7803 62.0051 11.7186C61.7228 11.5729 61.4444 11.4198 61.1631 11.272C60.6875 11.0478 60.1995 10.8508 59.7015 10.6819C59.6613 10.6662 59.6228 10.6464 59.5835 10.6285C59.6417 10.5354 59.6929 10.437 59.7592 10.35C60.1575 9.82207 60.464 9.23087 60.666 8.60116C60.8276 8.11001 60.9693 7.61372 61.1043 7.11494C61.2586 6.50643 61.483 5.91788 61.7729 5.36107C61.927 5.05504 62.1567 4.79346 62.4402 4.60114C62.5846 4.50886 62.7496 4.4537 62.9204 4.44058C63.0913 4.42746 63.2628 4.45679 63.4195 4.52594C63.7397 4.65145 64.021 4.85943 64.2348 5.12877C64.7417 5.72518 65.3417 6.23574 66.0115 6.64071C66.5634 6.98309 67.1038 7.34138 67.6266 7.72631C68.1627 8.13427 68.5976 8.66022 68.8977 9.26338C69.0921 9.58393 69.2373 9.93186 69.3283 10.2955C69.3556 10.4131 69.3718 10.533 69.3766 10.6536C69.3763 10.929 69.3821 11.2046 69.3716 11.4796C69.3653 11.6468 69.2439 11.7035 69.0938 11.6287C68.9775 11.565 68.8768 11.4763 68.7989 11.3689C68.3107 10.741 67.6921 10.2264 66.9858 9.86068C66.4204 9.57985 65.7802 9.48658 65.1582 9.59439C64.8312 9.63958 64.5157 9.7461 64.2282 9.90835C63.9594 10.0607 63.7201 10.2602 63.5219 10.4972C63.1357 10.9338 62.776 11.3932 62.445 11.8729C62.4035 11.924 62.3567 11.9703 62.3053 12.0113Z" fill="#F9B673"/>
<path d="M29.5956 59.7122C29.4463 59.9291 29.3084 60.1551 29.1452 60.361C28.8172 60.7882 28.5196 61.2378 28.2545 61.7066C27.8603 62.355 27.4033 62.9631 26.8901 63.5221C26.5325 63.9244 26.1615 64.3151 25.844 64.7521C25.5304 65.1636 25.2814 65.6205 25.1058 66.1071C25.0721 66.2117 25.0109 66.3054 24.9287 66.3783C24.3707 66.8761 23.7715 67.3258 23.1377 67.7226C23.0456 67.8025 22.929 67.8484 22.8072 67.8528C22.7851 67.816 22.7594 67.7815 22.7306 67.7497C22.119 67.1938 21.6929 66.4635 21.5097 65.6576C21.398 65.224 21.3192 64.7826 21.274 64.3372C21.9549 63.9358 22.5609 63.4192 23.0651 62.8105C23.5463 62.2186 23.818 61.484 23.8379 60.7214C23.8483 60.4843 23.9352 60.242 23.7979 60.013C23.7943 59.9972 23.7909 59.9814 23.7875 59.9655C24.7394 59.3224 25.8697 58.9956 27.0179 59.0315C27.6436 59.0416 28.2636 59.1533 28.8536 59.3622C29.1094 59.46 29.3575 59.577 29.5956 59.7122Z" fill="#392520"/>
<path d="M64.6889 71.6878C64.8032 71.7514 64.9291 71.7913 65.0592 71.8052C65.1892 71.819 65.3208 71.8064 65.4458 71.7682C65.9909 71.6581 66.5255 71.5015 67.0438 71.3002C67.1752 71.2473 67.298 71.1753 67.4084 71.0865C67.7938 71.568 68.1158 72.0968 68.3666 72.6602C68.4721 72.8899 68.5592 73.128 68.6586 73.3606C68.8345 73.7791 68.8978 74.2364 68.8423 74.6869C68.8245 74.8643 68.7572 75.0331 68.648 75.174C68.5388 75.3149 68.3921 75.4222 68.2247 75.4836C67.9007 75.6273 67.5417 75.6733 67.1919 75.6159C67.1386 75.6022 67.0841 75.5942 67.0291 75.5919C66.5327 75.6081 66.0413 75.531 65.5473 75.505C65.1534 75.4682 64.7578 75.4524 64.3622 75.4579C64.0443 75.4751 63.7254 75.4962 63.4105 75.5403C63.2587 75.5648 63.1053 75.5779 62.9515 75.5796C62.5004 75.5893 62.0491 75.5738 61.5998 75.5331C61.2735 75.4936 60.9389 75.53 60.6092 75.5113C60.083 75.4816 59.5559 75.4565 59.0338 75.378C58.9359 75.3632 58.8394 75.3403 58.7453 75.3094C58.6754 75.2916 58.6117 75.2549 58.5611 75.2035C58.5105 75.1521 58.4749 75.0878 58.4582 75.0176C58.4415 74.9473 58.4444 74.8739 58.4664 74.8052C58.4885 74.7365 58.5289 74.6751 58.5833 74.6277C58.7118 74.5052 58.8742 74.424 59.0494 74.3949C59.3074 74.3434 59.5671 74.2968 59.8282 74.2648C60.3641 74.2152 60.895 74.1218 61.4157 73.9855C62.1201 73.8014 62.7877 73.498 63.3897 73.0884C63.7873 72.7925 64.1568 72.4606 64.4935 72.0969C64.604 71.9873 64.6731 71.8427 64.6889 71.6878Z" fill="#F9B673"/>
<path d="M21.2646 64.2879C21.2481 64.2529 21.2194 64.2251 21.1839 64.2098C21.1484 64.1945 21.1085 64.1927 21.0717 64.2048C20.8581 64.2587 20.6396 64.2912 20.4195 64.3019C20.0013 64.3449 19.579 64.2791 19.1936 64.1111C19.0396 64.0497 18.8974 63.962 18.7735 63.852C18.1474 63.2805 17.9223 62.5637 18.0203 61.7349C18.0561 61.4582 18.1956 61.2055 18.4105 61.0276C18.5508 60.904 18.6976 60.7871 18.8468 60.6742C19.1816 60.4204 19.4556 60.095 19.6487 59.7217C19.7357 59.5561 19.8144 59.3862 19.903 59.2215C19.9864 59.054 20.0798 58.8917 20.1827 58.7355C20.3813 58.434 20.6631 58.1968 20.9939 58.0525C21.3247 57.9081 21.6903 57.863 22.0463 57.9225C22.3204 57.9649 22.5762 58.0865 22.7822 58.2723C23.2146 58.6369 23.5273 59.1231 23.6796 59.6678C23.7101 59.7675 23.6769 59.8942 23.7875 59.9655L23.7991 59.985C23.7378 60.263 23.704 60.5464 23.6981 60.831C23.6713 61.638 23.2934 62.2852 22.8003 62.8709C22.3844 63.365 21.9386 63.8419 21.3161 64.0946C21.2159 64.1352 21.3705 64.2469 21.2646 64.2879Z" fill="#392520"/>
<path d="M32.7213 63.0802C32.8163 63.1066 32.9123 63.1301 33.0062 63.1601C33.213 63.234 33.4302 63.2749 33.6498 63.2811C33.8354 63.2808 34.0125 63.3714 34.2036 63.3433C34.2695 63.3442 34.3354 63.3415 34.4009 63.335C34.7698 63.2346 35.1446 63.2875 35.5172 63.2835C35.2604 63.4904 34.9819 63.6688 34.6866 63.8156C34.1716 64.1124 33.6351 64.3731 33.1498 64.7192C32.8991 64.8979 32.6499 65.0807 32.416 65.2805C32.1924 65.4691 32.0093 65.701 31.8776 65.9622C31.7459 66.2234 31.6684 66.5085 31.6496 66.8004C31.6193 67.1301 31.6033 67.4585 31.5981 67.7882C31.5886 67.9643 31.5461 68.137 31.4727 68.2973C31.4399 68.3857 31.3865 68.4651 31.3169 68.5287C31.2474 68.5924 31.1637 68.6386 31.0727 68.6635C30.887 68.7312 30.6877 68.753 30.4918 68.7273C30.2958 68.7013 30.1026 68.6579 29.9144 68.5976C29.8728 68.583 29.8296 68.5741 29.7857 68.5709C29.7373 68.5585 29.6863 68.5614 29.6397 68.5794C29.5931 68.5974 29.5534 68.6296 29.526 68.6714C29.4898 68.7409 29.4289 68.7943 29.3552 68.821C29.2816 68.8477 29.2006 68.8457 29.1283 68.8155C29.0546 68.7923 28.9818 68.7542 28.9059 68.7964C28.8072 68.8486 28.7319 68.9362 28.6953 69.0418C28.6512 69.1783 28.5786 69.304 28.4823 69.4104C28.4088 69.5009 28.3064 69.5634 28.1923 69.5873C28.0782 69.6113 27.9593 69.5952 27.8557 69.5419C27.7371 69.483 27.6295 69.4043 27.5374 69.3092C27.3716 69.1488 27.2016 68.9927 27.0333 68.8348C27.0852 68.6887 27.2209 68.6207 27.3305 68.5356C28.1663 67.8564 28.9664 67.1345 29.7277 66.3727C30.6625 65.4567 31.5205 64.4655 32.2931 63.409C32.406 63.2586 32.5119 63.1031 32.7213 63.0802ZM46.8596 50.5652C46.7909 50.4166 46.7273 50.2654 46.6523 50.12C46.5534 49.9366 46.4318 49.7664 46.2903 49.6135C45.8563 49.1619 45.356 48.7792 44.8066 48.4784C44.0182 48.0033 43.2155 47.5521 42.452 47.0355C42.1502 46.8161 41.8298 46.6236 41.4945 46.46C41.2743 46.3614 41.055 46.2607 40.8328 46.1668C40.7803 46.1523 40.7261 46.1446 40.6716 46.1441C40.6926 46.1063 40.7167 46.0703 40.7437 46.0365C41.1616 45.5923 41.5899 45.1586 42.0399 44.7466C42.0868 44.8216 42.1576 44.8786 42.2409 44.9085C42.8339 45.2427 43.4068 45.6113 43.9567 46.0125C44.4787 46.3778 44.9947 46.7509 45.4955 47.1437C45.887 47.4272 46.2471 47.7518 46.5694 48.1121C46.6603 48.2217 46.7424 48.3387 46.8342 48.4476C46.8694 48.4974 46.9178 48.5363 46.974 48.5601C47.0301 48.584 47.0918 48.5917 47.152 48.5824C47.1535 48.9231 47.1171 49.263 47.0435 49.5957C46.9839 49.9191 46.921 50.242 46.8596 50.5652ZM14.8574 74.1889C14.5147 74.2649 14.1699 74.333 13.8297 74.4192C13.4873 74.506 13.1352 74.5223 12.7889 74.579C12.6576 74.5924 12.5251 74.5881 12.395 74.5663C12.3414 74.5545 12.2921 74.5281 12.2526 74.4901C12.2053 74.4504 12.2206 74.3908 12.2276 74.3357C12.2299 74.3177 12.216 74.2976 12.2021 74.2566C12.0345 74.2566 11.8592 74.2562 11.6838 74.2567C11.3864 74.2574 11.0887 74.251 10.7916 74.2623C10.5828 74.2554 10.3751 74.2281 10.1716 74.1807C10.0854 74.1618 10.0036 74.1266 9.9307 74.077C9.88494 74.0513 9.8458 74.0153 9.81636 73.9718C9.78691 73.9284 9.76798 73.8787 9.76106 73.8267C9.75414 73.7747 9.75942 73.7217 9.77648 73.6721C9.79354 73.6225 9.82192 73.5775 9.85936 73.5408C9.95153 73.4454 10.0654 73.3738 10.1912 73.332C10.5017 73.2206 10.821 73.1355 11.1458 73.0774C11.6089 72.9892 12.075 72.9162 12.5444 72.8626C12.8926 72.8229 13.2364 72.7456 13.5834 72.6927C13.8105 72.6528 14.0398 72.626 14.27 72.6127C15.0617 72.585 15.8523 72.5222 16.6452 72.5354C16.6893 72.5361 16.7332 72.5389 16.7772 72.5407C16.8173 72.6984 16.6831 72.7466 16.5968 72.8208C16.0556 73.2858 15.4747 73.6992 14.901 74.1211C14.8939 74.1477 14.8787 74.1714 14.8574 74.1889Z" fill="#F9B673"/>
<path d="M32.7213 63.0801C32.5782 63.198 32.4496 63.3324 32.3381 63.4805C32.0657 63.8507 31.7543 64.1919 31.479 64.5601C31.1302 64.9978 30.7575 65.416 30.3628 65.8127C30.1535 66.0366 29.9533 66.27 29.7412 66.4925C29.5659 66.6765 29.3436 66.8022 29.1698 66.9891C29.0077 67.1837 28.8195 67.3552 28.6107 67.4986C28.5309 67.5575 28.4589 67.6263 28.3963 67.7032C28.1018 68.0141 27.7787 68.2967 27.4315 68.5473C27.3135 68.6621 27.1794 68.7589 27.0333 68.8346C26.9893 68.8104 26.9452 68.7861 26.9011 68.7618C26.9021 68.7344 26.9104 68.7077 26.9251 68.6845C26.9397 68.6613 26.9603 68.6425 26.9847 68.6298C27.262 68.4716 27.5134 68.2719 27.7303 68.0376C27.9065 67.8553 28.0903 67.6804 28.2669 67.4985C28.5581 67.1992 28.8739 66.9249 29.2109 66.6784C29.2709 66.6298 29.3272 66.5769 29.3793 66.5199C29.6214 66.2788 29.8624 66.0364 30.1048 65.7955C30.5774 65.3206 31.0111 64.8085 31.4017 64.2641C31.4329 64.2189 31.4666 64.1756 31.5028 64.1343C31.763 63.8517 32.013 63.5604 32.2527 63.2603C32.3383 63.1527 32.4221 63.022 32.5868 63.0117C32.6316 63.0345 32.6764 63.0573 32.7213 63.0801Z" fill="#E8AF7D"/>
<path d="M21.2646 64.2879C21.2721 64.254 21.2687 64.2186 21.2548 64.1868C21.2409 64.155 21.2174 64.1284 21.1875 64.1108C21.4126 63.966 21.6304 63.8263 21.8478 63.686C21.8953 63.6589 21.9403 63.6277 21.9825 63.5928C22.4989 63.1136 22.9871 62.6076 23.3103 61.9738C23.4887 61.6697 23.5858 61.3248 23.5924 60.9724C23.5857 60.8736 23.5981 60.7744 23.6289 60.6803C23.6663 60.5307 23.6751 60.3754 23.6547 60.2225C23.6538 60.1733 23.6669 60.1248 23.6924 60.0828C23.718 60.0407 23.755 60.0067 23.7991 59.9849C23.83 59.9929 23.8802 59.9918 23.8887 60.0101C23.9299 60.0682 23.9578 60.1346 23.9703 60.2047C23.9829 60.2748 23.9797 60.3468 23.9612 60.4156C23.9319 60.5209 23.9183 60.6301 23.921 60.7394C23.8936 60.9882 23.8639 61.2371 23.8239 61.4841C23.7446 61.9746 23.4857 62.3821 23.1985 62.771C22.7607 63.3473 22.2229 63.8403 21.6108 64.2265C21.5145 64.3008 21.3956 64.3399 21.274 64.3372C21.2668 64.3314 21.2619 64.3233 21.2602 64.3143C21.2585 64.3052 21.2601 64.2959 21.2646 64.2879Z" fill="#763737"/>
<path d="M14.8582 74.1284C14.836 74.1128 14.8269 74.087 14.8469 74.072C15.2972 73.7336 15.7571 73.4073 16.1961 73.055C16.4123 72.9108 16.6078 72.7377 16.7772 72.5406C16.7962 72.5351 16.8162 72.5334 16.8358 72.5356C16.8812 72.5504 16.9738 72.556 16.9121 72.6252C16.7699 72.7912 16.6113 72.9424 16.4387 73.0765C16.0811 73.3437 15.7281 73.6179 15.3857 73.904C15.2643 74.0054 15.1086 74.0271 14.9912 74.1248C14.9832 74.1345 14.9732 74.1424 14.9619 74.148C14.9505 74.1535 14.9382 74.1565 14.9256 74.1568C14.913 74.1572 14.9004 74.1548 14.8888 74.1499C14.8772 74.145 14.8668 74.1377 14.8582 74.1284Z" fill="#E9B07E"/>
<path d="M14.8582 74.1285C14.9026 74.1274 14.9469 74.1262 14.9912 74.125C14.9814 74.1566 14.9637 74.1851 14.9398 74.208C14.9159 74.2309 14.8867 74.2474 14.8547 74.256C14.8556 74.2337 14.8565 74.2113 14.8574 74.189C14.8557 74.1689 14.856 74.1486 14.8582 74.1285Z" fill="#F5E4D1"/>
<path d="M32.5249 58.3155C32.8843 58.0112 33.2392 57.7012 33.6046 57.4042C33.9872 57.0932 34.3931 56.8099 34.7636 56.4856C35.0204 56.2608 35.3076 56.0764 35.5567 55.8443C35.6785 55.7316 35.8276 55.6526 35.9893 55.6152C36.151 55.5779 36.3197 55.5835 36.4786 55.6314C36.8977 55.7329 37.2797 55.9504 37.5808 56.259C37.6542 56.3412 37.7384 56.413 37.8312 56.4726C37.8885 56.5055 37.9395 56.5484 37.9819 56.5991C38.2647 56.9342 38.5719 57.2532 38.7703 57.6494C38.9632 58.0445 39.1086 58.4611 39.2033 58.8905C39.2859 59.3231 39.306 59.7652 39.2631 60.2035C39.2345 60.4897 39.1369 60.7646 38.9787 61.0047C38.884 61.1527 38.7756 61.2915 38.655 61.4193C38.1887 61.9199 37.6237 62.3184 36.9957 62.5899C36.5481 62.799 36.0735 62.9444 35.5857 63.0221C35.3225 63.0633 35.0612 63.0597 34.8 63.0845C34.5284 63.1204 34.2551 63.1412 33.9812 63.1468C33.6194 63.1377 33.2615 63.0694 32.9217 62.9447C32.9033 62.8023 33.019 62.7524 33.1089 62.7041C33.5637 62.46 33.9934 62.1742 34.4677 61.9601C35.3902 61.5436 36.3154 61.1144 37.0123 60.3447C37.3898 59.9278 37.6527 59.4501 37.5632 58.8522C37.4336 57.9865 36.555 57.6239 35.8188 57.6914C34.7829 57.7864 33.7528 57.9331 32.7709 58.306C32.6891 58.3371 32.6096 58.3822 32.5249 58.3155Z" fill="#F9B673"/>
<path d="M32.5249 58.3157C32.6575 58.3158 32.788 58.282 32.904 58.2176C33.3085 58.0483 33.7315 57.9271 34.1643 57.8563C34.4952 57.7861 34.8288 57.7276 35.1619 57.6679C35.2381 57.6576 35.3149 57.6528 35.3918 57.6537C35.5016 57.659 35.6116 57.6465 35.7175 57.6167C35.7802 57.5969 35.8458 57.5877 35.9115 57.5893C36.3981 57.5802 36.8722 57.7433 37.2502 58.0498C37.3703 58.1477 37.4643 58.2738 37.5237 58.4169C37.6135 58.5934 37.6654 58.7866 37.676 58.9843C37.6867 59.182 37.6558 59.3798 37.5854 59.5648C37.452 59.913 37.252 60.2318 36.9967 60.5036C36.7044 60.7855 36.3819 61.0342 36.0349 61.2451C35.5435 61.5584 35.0258 61.8284 34.4876 62.0521C33.9463 62.279 33.4721 62.6144 32.9657 62.8971C32.9487 62.9107 32.9338 62.9268 32.9217 62.945C32.8505 62.9402 32.7818 62.9175 32.7218 62.8789C32.822 62.7483 32.9507 62.6423 33.098 62.5689C33.3801 62.3806 33.6807 62.2191 33.9792 62.0567C34.1133 61.9838 34.2685 61.9487 34.4006 61.8728C34.9143 61.5778 35.4582 61.3375 35.9542 61.0105C36.1189 60.9019 36.291 60.8048 36.4573 60.6987C36.8474 60.4478 37.1485 60.0803 37.3179 59.6486C37.3424 59.5872 37.3717 59.5279 37.4055 59.4712C37.499 59.3057 37.5232 59.1099 37.473 58.9266C37.4377 58.708 37.3456 58.5026 37.2058 58.3308C37.0661 58.1591 36.8836 58.0271 36.6768 57.9482C36.2706 57.7733 35.819 57.7334 35.3884 57.8344C35.3567 57.8434 35.3239 57.8481 35.2909 57.8485C34.9743 57.8627 34.6595 57.9037 34.3499 57.9711C34.0359 58.0207 33.7269 58.0842 33.4189 58.1603C33.0771 58.2404 32.7435 58.3522 32.4225 58.4943C32.3912 58.5044 32.3587 58.5107 32.3259 58.5131C32.367 58.426 32.4374 58.3561 32.5249 58.3157Z" fill="#E8AF7D"/>
</svg>
